<?xml version="1.0" encoding="UTF-8"?>
<svg version="1.1" xmlns="http://www.w3.org/2000/svg" width="228" height="221">
<path d="M0 0 C75.24 0 150.48 0 228 0 C228 72.93 228 145.86 228 221 C152.76 221 77.52 221 0 221 C0 148.07 0 75.14 0 0 Z " fill="#FCFCFE" transform="translate(0,0)"/>
<path d="M0 0 C0.79406754 -0.0049649 1.58813507 -0.00992981 2.40626526 -0.01504517 C5.03110629 -0.02963808 7.6558868 -0.03646549 10.28076172 -0.04199219 C12.111969 -0.04774784 13.94317628 -0.05350552 15.77438354 -0.05926514 C19.61603068 -0.06976824 23.45765694 -0.07561482 27.29931641 -0.07910156 C32.20160516 -0.08457208 37.10361418 -0.10857207 42.00581551 -0.13707352 C45.79099305 -0.15578084 49.57610446 -0.16090988 53.36132431 -0.16243744 C55.16728106 -0.16544837 56.97323708 -0.17342369 58.7791481 -0.18662262 C75.12489986 -0.29752094 87.43087504 1.85783462 99.89794922 13.47363281 C111.29040223 25.68568676 112.56178208 38.85695738 112.55419922 54.73925781 C112.56131309 56.55613435 112.56901386 58.37300867 112.57727051 60.18988037 C112.59067499 63.98911793 112.59230293 67.78814784 112.58642578 71.58740234 C112.58054197 76.42339109 112.61108541 81.25837165 112.65154266 86.0941658 C112.67756964 89.84518675 112.68028342 93.59597001 112.676651 97.34706879 C112.67832912 99.12822751 112.68784355 100.90939879 112.70579529 102.69046783 C112.84465882 118.17283332 110.20981211 131.21660248 99.34716797 143.05566406 C86.28770832 155.46620646 70.96763451 156.48140979 53.94091797 156.49707031 C52.28241364 156.50351288 50.6239104 156.51024227 48.96540833 156.51724243 C45.50173308 156.52916058 42.03815716 156.53292888 38.57446289 156.53173828 C34.1702234 156.5315353 29.76663061 156.55884064 25.36254406 156.5932827 C21.94010074 156.61568904 18.51780978 156.61957167 15.09530067 156.61851883 C13.47323694 156.62085406 11.85116763 156.62955801 10.22917747 156.64518356 C-3.7227473 156.76702788 -15.55666414 154.95135058 -26.91455078 146.16113281 C-27.94580078 145.43925781 -28.97705078 144.71738281 -30.03955078 143.97363281 C-37.95799604 137.15803508 -42.7342497 126.30751328 -43.91455078 116.16113281 C-44.0174019 113.52861346 -44.08138744 110.92124586 -44.09155273 108.2890625 C-44.10140953 107.15823494 -44.10140953 107.15823494 -44.11146545 106.00456238 C-44.13103839 103.53070955 -44.14282443 101.05691692 -44.15283203 98.58300781 C-44.15690756 97.73158455 -44.16098309 96.88016129 -44.16518211 96.00293732 C-44.18597377 91.49691518 -44.20030569 86.99092287 -44.2097168 82.48486328 C-44.2207727 77.8573101 -44.255183 73.23023882 -44.2948885 68.60285568 C-44.32116013 65.02009246 -44.32941789 61.43744242 -44.33299828 57.85459137 C-44.33783621 56.1499226 -44.34936939 54.44525793 -44.36803627 52.74068451 C-44.52027728 37.9190468 -42.00763785 25.09243247 -31.72705078 13.74707031 C-22.5435719 4.94623639 -12.67265974 0.0189891 0 0 Z " fill="#2571E5" transform="translate(79.91455078125,4.8388671875)"/>
<path d="M0 0 C4.76114152 2.64715727 7.53479326 6.00211606 10.125 10.8125 C11.90305371 17.43979111 10.59880363 22.16590488 7.4375 28.06640625 C4.24809661 32.59750578 0.07219602 34.76299899 -5.1875 36.1875 C-5.8475 36.249375 -6.5075 36.31125 -7.1875 36.375 C-5.81766497 39.53615776 -5.1984362 40.3677092 -2.1875 42.375 C-0.53200469 42.75999891 1.1347433 43.10293135 2.8125 43.375 C3.01875 42.488125 3.225 41.60125 3.4375 40.6875 C5.08499227 36.71854135 6.95036102 34.23484152 10.8125 32.375 C15.84720567 31.4350793 19.669917 31.84451504 24.3125 34 C27.13171746 36.67825659 27.95903416 38.6197503 28.8125 42.375 C31.4525 42.375 34.0925 42.375 36.8125 42.375 C37.121875 41.2921875 37.121875 41.2921875 37.4375 40.1875 C39.47019595 36.02971282 42.64070488 33.46089756 46.8125 31.375 C50.64380541 30.93962438 52.50908294 31.21115479 55.9375 33.0625 C62.43369355 38.28769916 62.43369355 38.28769916 63.1953125 42.484375 C63.40020715 46.55494875 62.97712137 49.03309409 61.1875 52.75 C57.59424634 56.72149089 54.61238182 58.15001477 49.3125 58.8125 C45.07688066 58.28304758 43.06523362 57.11025327 39.8125 54.375 C36.8125 50.175 36.8125 50.175 36.8125 47.375 C34.1725 47.375 31.5325 47.375 28.8125 47.375 C28.77125 48.096875 28.73 48.81875 28.6875 49.5625 C27.41784887 53.6435215 25.23527215 54.86031026 21.8125 57.375 C18.59329518 58.98460241 15.30361461 58.83658126 11.8125 58.375 C7.91997224 56.46545808 6.21937792 55.3243818 4.5 51.3125 C2.25666129 47.40742892 0.07631758 47.05731511 -4.12890625 45.91796875 C-4.80824219 45.73878906 -5.48757812 45.55960938 -6.1875 45.375 C-6.8475 45.045 -7.5075 44.715 -8.1875 44.375 C-8.10629294 47.77178803 -7.99347981 51.16682382 -7.875 54.5625 C-7.85244141 55.52220703 -7.82988281 56.48191406 -7.80664062 57.47070312 C-7.6137252 64.44951577 -7.6137252 64.44951577 -4.1875 70.375 C-2.42169884 71.57373855 -2.42169884 71.57373855 -0.5 72.1875 C0.593125 72.579375 1.68625 72.97125 2.8125 73.375 C3.01875 72.488125 3.225 71.60125 3.4375 70.6875 C5.08499227 66.71854135 6.95036102 64.23484152 10.8125 62.375 C15.90271411 61.42471652 19.67733059 61.8074153 24.3125 64.125 C27.20249874 66.72599887 28.54572521 68.66888214 29.1484375 72.5234375 C29.24412704 77.97774135 28.55648185 81.12507465 24.8125 85.375 C21.91261632 87.72625704 20.15309803 88.3308484 16.4375 88.8125 C12.10312012 88.28938519 9.12198772 87.25100318 5.8125 84.375 C4.73046875 82.62109375 4.73046875 82.62109375 3.8125 80.75 C1.23714664 76.4040912 -0.46471952 76.67783599 -5.1875 75.375 C-8.05398221 72.7644537 -10.45150167 69.84699665 -12.1875 66.375 C-12.27336809 64.05083704 -12.29461043 61.72416693 -12.28515625 59.3984375 C-12.2837413 58.71319 -12.28232635 58.0279425 -12.28086853 57.32192993 C-12.27526675 55.13124239 -12.26271406 52.9406567 -12.25 50.75 C-12.24498522 49.26562648 -12.24042228 47.78125135 -12.23632812 46.296875 C-12.22529677 42.65621685 -12.20803099 39.01561836 -12.1875 35.375 C-13.12335938 35.07851562 -14.05921875 34.78203125 -15.0234375 34.4765625 C-20.02504094 32.73526353 -22.90972738 30.25910396 -25.5 25.6875 C-28.08412913 20.0465352 -28.11611452 14.91647133 -26 9.125 C-19.94668535 -0.05933946 -10.46734298 -4.70243416 0 0 Z " fill="#F1F5FD" transform="translate(96.1875,39.625)"/>
<path d="M0 0 C3.86374322 1.91528902 6.48676685 4.40949213 8.41015625 8.28125 C9.60732248 12.40482258 9.17929138 16.25313296 8.0078125 20.33984375 C5.87910469 24.17940191 3.07676262 26.69463648 -0.9921875 28.33984375 C-5.54069249 29.06426108 -10.04237407 29.37352144 -14.1953125 27.171875 C-17.58374248 24.4027589 -20.0566228 21.70581237 -20.9921875 17.33984375 C-21.44340995 12.60200805 -21.49871727 10.3529033 -19.3671875 6.08984375 C-13.87435756 -0.27027513 -8.12725782 -2.69315014 0 0 Z " fill="#2472E5" transform="translate(93.9921875,42.66015625)"/>
<path d="M0 0 C0.99 0 1.98 0 3 0 C3.33 2.31 3.66 4.62 4 7 C4.33 6.67 4.66 6.34 5 6 C7.8125 5.6875 7.8125 5.6875 11 6 C13.30275556 7.8670991 14.67823871 9.35647741 16 12 C15.984375 14.05859375 15.984375 14.05859375 15.75 16.4375 C15.68296875 17.21996094 15.6159375 18.00242188 15.546875 18.80859375 C14.89330099 21.42755818 14.16264649 22.40700165 12 24 C8.4375 24.3125 8.4375 24.3125 5 24 C4.34 23.34 3.68 22.68 3 22 C2.67 22.66 2.34 23.32 2 24 C1.34 24 0.68 24 0 24 C0 16.08 0 8.16 0 0 Z " fill="#2977E6" transform="translate(90,192)"/>
<path d="M0 0 C3.68386204 0.8062545 5.1556308 2.38804811 7.1953125 5.48046875 C7.88682575 9.78321784 7.71088655 11.68992187 5.3203125 15.35546875 C2.8481872 17.82759405 1.8915407 18.38552854 -1.5546875 18.85546875 C-6.07996924 18.33332086 -7.82512145 16.8856871 -10.8046875 13.48046875 C-11.91032687 9.32594504 -11.19995737 6.30537978 -9.3671875 2.48046875 C-6.12138727 -0.05283875 -4.04344926 -0.24687727 0 0 Z " fill="#2271E5" transform="translate(147.8046875,75.51953125)"/>
<path d="M0 0 C3.55247432 0.87379409 4.94828114 2.4927342 6.9375 5.4765625 C7.61389058 8.49936996 7.39308841 10.28744363 6.9375 13.4765625 C5.06734906 15.90775873 3.65611655 17.11725423 0.9375 18.4765625 C-2.93464182 18.90680048 -4.58746371 18.79325336 -7.875 16.6015625 C-10.65899199 13.89711313 -10.99714155 13.05389546 -11.4375 9.1640625 C-11.0625 5.4765625 -11.0625 5.4765625 -9.0625 2.5390625 C-5.72726514 0.24608853 -3.96242945 -0.28517485 0 0 Z " fill="#4887E9" transform="translate(114.0625,105.5234375)"/>
<path d="M0 0 C2.99380345 1.99586897 4.63808488 3.38259171 5.44140625 6.97265625 C5.64808593 10.53954757 5.30903079 12.59825998 3.125 15.4375 C-0.41699942 18.04191134 -2.58936125 18.43241556 -7 18 C-9.69990662 16.20006226 -11.5418865 14.916227 -13 12 C-13.25491388 8.0913205 -13.23289019 5.29057502 -11 2 C-7.30670342 -0.46219772 -4.2850656 -0.79198683 0 0 Z " fill="#2673E5" transform="translate(116,76)"/>
<path d="M0 0 C4.14182881 0.862881 5.56226471 2.18349135 8 5.625 C8.97383359 9.8251866 8.41597124 12.79305752 6.5 16.625 C3.86939611 18.72948312 3.15374106 18.9828457 -0.0625 19.125 C-4 18.625 -4 18.625 -5.9375 17.25 C-8.36684676 13.53452848 -8.73091703 9.96897281 -8 5.625 C-5.56226471 2.18349135 -4.14182881 0.862881 0 0 Z " fill="#F6F9FD" transform="translate(181,197.375)"/>
<path d="M0 0 C5.80135884 0 10.78341127 3.20950866 15 7 C15.76171875 9.19921875 15.76171875 9.19921875 16 11 C14.72992786 11.9593419 13.45891081 12.91743294 12.1875 13.875 C11.12595703 14.67550781 11.12595703 14.67550781 10.04296875 15.4921875 C6.4314322 18.15768102 4.53030451 19.46464662 0 19 C-2.49210439 16.50789561 -2.26015661 14.99639212 -2.2734375 11.58984375 C-2.26570313 10.90019531 -2.25796875 10.21054687 -2.25 9.5 C-2.25773437 8.81035156 -2.26546875 8.12070312 -2.2734375 7.41015625 C-2.25333293 2.25333293 -2.25333293 2.25333293 0 0 Z " fill="#F1F5FD" transform="translate(82,47)"/>
<path d="M0 0 C1.86621094 0.19311523 1.86621094 0.19311523 4 1 C5.18847656 3.13305664 5.18847656 3.13305664 6.140625 5.91015625 C6.66269531 7.39418945 6.66269531 7.39418945 7.1953125 8.90820312 C7.54335937 9.94912109 7.89140625 10.99003906 8.25 12.0625 C8.61351562 13.10728516 8.97703125 14.15207031 9.3515625 15.22851562 C10.24894087 17.81438223 11.13093562 20.40450825 12 23 C11.01 23.33 10.02 23.66 9 24 C8.34 21.69 7.68 19.38 7 17 C2.05 17.495 2.05 17.495 -3 18 C-3.66 19.98 -4.32 21.96 -5 24 C-5.99 24 -6.98 24 -8 24 C-7.39461212 20.64048698 -6.56675919 17.55115637 -5.37109375 14.35546875 C-4.90219727 13.09379883 -4.90219727 13.09379883 -4.42382812 11.80664062 C-4.09833984 10.94232422 -3.77285156 10.07800781 -3.4375 9.1875 C-3.10814453 8.30384766 -2.77878906 7.42019531 -2.43945312 6.50976562 C-1.62965399 4.33856505 -0.81641107 2.16872111 0 0 Z " fill="#2B77E6" transform="translate(124,192)"/>
<path d="M0 0 C3.03965634 1.8108591 4.60422231 2.90400023 5.8125 6.25 C5.874375 6.8275 5.93625 7.405 6 8 C5.01 8 4.02 8 3 8 C2.608125 7.34 2.21625 6.68 1.8125 6 C-0.31658638 3.6506633 -0.93670424 3.61110543 -4 3.4375 C-7.13751436 3.61052469 -7.72757007 3.71905664 -10 6.0625 C-11.2304273 9.6768802 -11.47466191 12.2027047 -11 16 C-9.54366876 19.02938694 -9.54366876 19.02938694 -7 21 C-3.95720628 21.66680368 -3.95720628 21.66680368 -1 21 C1.55949546 19.14657225 1.97918798 18.06243607 3 15 C1.02 15 -0.96 15 -3 15 C-3 14.01 -3 13.02 -3 12 C-0.03 12 2.94 12 6 12 C6.32469403 16.65394781 5.79790518 19.23358918 3 23 C-0.45739557 24.72869779 -4.21975568 24.48966895 -8 24 C-10.87029869 22.20606332 -12.49131638 21.01736724 -14 18 C-14.93762008 7.59395414 -14.93762008 7.59395414 -12.125 2.8125 C-8.36559692 -0.39404968 -4.81393768 -0.67321351 0 0 Z " fill="#166DE4" transform="translate(19,192)"/>
<path d="M0 0 C0.99 0 1.98 0 3 0 C3 3.63 3 7.26 3 11 C7.29 11 11.58 11 16 11 C16 7.37 16 3.74 16 0 C16.99 0 17.98 0 19 0 C19 7.92 19 15.84 19 24 C18.01 24 17.02 24 16 24 C16 20.37 16 16.74 16 13 C11.71 13 7.42 13 3 13 C3 16.63 3 20.26 3 24 C2.01 24 1.02 24 0 24 C0 16.08 0 8.16 0 0 Z " fill="#2371E5" transform="translate(48,192)"/>
<path d="M0 0 C3.5060303 0.86943897 4.94966563 2.56083702 6.9375 5.48046875 C7.25 9.29296875 7.25 9.29296875 6.9375 12.48046875 C6.339375 11.84109375 5.74125 11.20171875 5.125 10.54296875 C3.02939663 8.27736486 3.02939663 8.27736486 -0.0625 7.48046875 C-0.3925 8.47046875 -0.7225 9.46046875 -1.0625 10.48046875 C-1.7225 10.48046875 -2.3825 10.48046875 -3.0625 10.48046875 C-3.3925 9.82046875 -3.7225 9.16046875 -4.0625 8.48046875 C-6.44814077 9.05631307 -8.72932784 9.7027447 -11.0625 10.48046875 C-11.57514032 6.89198654 -11.20107753 5.6753434 -9.0625 2.66796875 C-5.71513628 0.2271827 -4.04159706 -0.28321798 0 0 Z " fill="#2070E4" transform="translate(114.0625,105.51953125)"/>
<path d="M0 0 C0.99 0.33 1.98 0.66 3 1 C3 1.99 3 2.98 3 4 C3.66 3.67 4.32 3.34 5 3 C5.75 5.1875 5.75 5.1875 6 8 C4.22336478 10.69558448 2.90715555 12.54642223 0 14 C-1.99960012 14.039992 -4.00047242 14.04346799 -6 14 C-6 12.68 -6 11.36 -6 10 C-7.91666921 7.74934898 -7.91666921 7.74934898 -10 6 C-9.67 5.01 -9.34 4.02 -9 3 C-8.2575 3.2475 -7.515 3.495 -6.75 3.75 C-5.38875 3.87375 -5.38875 3.87375 -4 4 C-1.66545339 2.16641665 -1.66545339 2.16641665 0 0 Z " fill="#2672E5" transform="translate(149,80)"/>
<path d="M0 0 C4.14182881 0.862881 5.56226471 2.18349135 8 5.625 C8.97383359 9.8251866 8.41597124 12.79305752 6.5 16.625 C3.86939611 18.72948312 3.15374106 18.9828457 -0.0625 19.125 C-4 18.625 -4 18.625 -5.9375 17.25 C-8.36684676 13.53452848 -8.73091703 9.96897281 -8 5.625 C-5.56226471 2.18349135 -4.14182881 0.862881 0 0 Z M-4.9375 5.1875 C-6.44640049 8.64909525 -5.8701627 11.01047801 -5 14.625 C-3.11340125 16.93162599 -3.11340125 16.93162599 0 16.9375 C0.99 16.834375 1.98 16.73125 3 16.625 C5.71232939 12.55650591 5.30699887 10.46023216 5 5.625 C3.11861241 3.33569764 3.11861241 3.33569764 0.0625 3.25 C-3.01148176 3.35261163 -3.01148176 3.35261163 -4.9375 5.1875 Z " fill="#176DE4" transform="translate(181,197.375)"/>
<path d="M0 0 C2.4375 0.875 2.4375 0.875 4.4375 3.875 C4.98302912 9.98492617 4.98302912 9.98492617 3.25 12.8125 C0.81646796 14.23905327 -0.78792896 14.23071424 -3.5625 13.875 C-5.97736943 11.46013057 -5.8586925 10.74792211 -5.875 7.4375 C-5.89175781 6.65503906 -5.90851563 5.87257812 -5.92578125 5.06640625 C-5.31158662 1.36142576 -3.75368117 -0.1831064 0 0 Z " fill="#F7F9FD" transform="translate(98.5625,200.125)"/>
<path d="M0 0 C1.875 1.5 1.875 1.5 3 3 C2.34 3.66 1.68 4.32 1 5 C0.34 4.34 -0.32 3.68 -1 3 C-3.60280568 3.32041397 -3.60280568 3.32041397 -6 4 C-5.67 4.99 -5.34 5.98 -5 7 C-3.15640378 7.83475519 -3.15640378 7.83475519 -1 8.375 C1.17578125 9.1171875 1.17578125 9.1171875 3 10 C4.1875 12.5 4.1875 12.5 4 15 C2.78125 16.64453125 2.78125 16.64453125 1 18 C-1.26171875 18.29296875 -1.26171875 18.29296875 -3.6875 18.1875 C-4.49574219 18.16042969 -5.30398437 18.13335937 -6.13671875 18.10546875 C-6.75160156 18.07066406 -7.36648437 18.03585938 -8 18 C-8.66 16.68 -9.32 15.36 -10 14 C-6.7 14.33 -3.4 14.66 0 15 C0 14.01 0 13.02 0 12 C-0.55429688 11.80664062 -1.10859375 11.61328125 -1.6796875 11.4140625 C-2.40414062 11.15367187 -3.12859375 10.89328125 -3.875 10.625 C-4.95394531 10.24214844 -4.95394531 10.24214844 -6.0546875 9.8515625 C-8 9 -8 9 -10 7 C-9.8125 4.5 -9.8125 4.5 -9 2 C-5.53076119 -0.31282587 -4.07794425 -0.42478586 0 0 Z " fill="#2A77E6" transform="translate(220,198)"/>
<path d="M0 0 C0.99 0 1.98 0 3 0 C3.33 4.62 3.66 9.24 4 14 C5.65 14.33 7.3 14.66 9 15 C11.77042109 12.22957891 11.39796106 10.23466195 11.625 6.375 C11.69976562 5.18648437 11.77453125 3.99796875 11.8515625 2.7734375 C11.90054688 1.85820312 11.94953125 0.94296875 12 0 C12.66 0 13.32 0 14 0 C14 5.94 14 11.88 14 18 C13.34 18 12.68 18 12 18 C12 17.34 12 16.68 12 16 C11.01 16.66 10.02 17.32 9 18 C6 18.375 6 18.375 3 18 C0.38430328 15.54892755 0.01316893 14.15521782 -0.29296875 10.546875 C-0.25816406 9.29390625 -0.22335938 8.0409375 -0.1875 6.75 C-0.16042969 5.48671875 -0.13335937 4.2234375 -0.10546875 2.921875 C-0.07066406 1.95765625 -0.03585938 0.9934375 0 0 Z " fill="#3178E6" transform="translate(71,198)"/>
<path d="M0 0 C1.875 1.375 1.875 1.375 3 3 C3 3.66 3 4.32 3 5 C2.06027344 4.85691406 2.06027344 4.85691406 1.1015625 4.7109375 C0.28429687 4.60007813 -0.53296875 4.48921875 -1.375 4.375 C-2.18710938 4.25898438 -2.99921875 4.14296875 -3.8359375 4.0234375 C-4.55007812 4.01570312 -5.26421875 4.00796875 -6 4 C-8.30746414 5.87773264 -8.30746414 5.87773264 -8.25 8.9375 C-8.23517754 12.17282787 -8.23517754 12.17282787 -6 15 C-3.5 15.41666667 -3.5 15.41666667 -1 15 C-0.34 14.34 0.32 13.68 1 13 C1.99 13.33 2.98 13.66 4 14 C3 16 3 16 1 18 C-3.35503854 18.55302077 -5.70416736 18.74510377 -9.5 16.5625 C-11.74064073 12.73473876 -11.8840096 9.32011646 -11 5 C-7.88898887 0.51648396 -5.44391349 -0.94676756 0 0 Z " fill="#2373E5" transform="translate(149,198)"/>
<path d="M0 0 C0.99 0 1.98 0 3 0 C3 1.32 3 2.64 3 4 C4.32 4 5.64 4 7 4 C7 4.66 7 5.32 7 6 C5.68 6 4.36 6 3 6 C3.33 10.29 3.66 14.58 4 19 C4.99 19.33 5.98 19.66 7 20 C7 20.66 7 21.32 7 22 C4.625 22.125 4.625 22.125 2 22 C0 20 0 20 -0.1953125 16.7421875 C-0.17210937 15.46601563 -0.14890625 14.18984375 -0.125 12.875 C-0.10695312 11.59367188 -0.08890625 10.31234375 -0.0703125 8.9921875 C-0.04710937 8.00476563 -0.02390625 7.01734375 0 6 C-0.66 6 -1.32 6 -2 6 C-2 5.34 -2 4.68 -2 4 C-1.34 4 -0.68 4 0 4 C0 2.68 0 1.36 0 0 Z " fill="#3078E6" transform="translate(157,194)"/>
<path d="M0 0 C7.38461538 -0.36923077 7.38461538 -0.36923077 10.5 1.5 C10.995 1.995 11.49 2.49 12 3 C11.34 4.32 10.68 5.64 10 7 C9.67 6.34 9.34 5.68 9 5 C8.4225 5.28875 7.845 5.5775 7.25 5.875 C4.125 7.4375 4.125 7.4375 1 9 C1 8.34 1 7.68 1 7 C-0.32 7 -1.64 7 -3 7 C-2.690625 6.401875 -2.38125 5.80375 -2.0625 5.1875 C-0.89790296 2.91043228 -0.89790296 2.91043228 0 0 Z " fill="#2271E5" transform="translate(108,76)"/>
<path d="M0 0 C3.03965634 1.8108591 4.60422231 2.90400023 5.8125 6.25 C5.874375 6.8275 5.93625 7.405 6 8 C5.01 8 4.02 8 3 8 C2.608125 7.34 2.21625 6.68 1.8125 6 C-0.31658638 3.6506633 -0.93670424 3.61110543 -4 3.4375 C-6.10325855 3.45430865 -6.10325855 3.45430865 -8 4 C-10.08216876 6.3549963 -10.08216876 6.3549963 -11 9 C-11.99 8.67 -12.98 8.34 -14 8 C-13.12269491 5.29497597 -12.28331029 3.31599994 -10.375 1.1875 C-6.93690123 -0.53154938 -3.72010003 -0.67168473 0 0 Z " fill="#2373E5" transform="translate(19,192)"/>
<path d="M0 0 C0.66 0 1.32 0 2 0 C2 1.32 2 2.64 2 4 C3.32 4 4.64 4 6 4 C6 4.66 6 5.32 6 6 C4.68 6 3.36 6 2 6 C2.33 10.29 2.66 14.58 3 19 C3.99 19.33 4.98 19.66 6 20 C6 20.66 6 21.32 6 22 C1.125 21.125 1.125 21.125 0 20 C-0.07271741 17.64686445 -0.08370868 15.29166332 -0.0625 12.9375 C-0.05347656 11.64714844 -0.04445312 10.35679687 -0.03515625 9.02734375 C-0.02355469 8.02832031 -0.01195312 7.02929688 0 6 C-0.99 6 -1.98 6 -3 6 C-3 5.34 -3 4.68 -3 4 C-2.01 4 -1.02 4 0 4 C0 2.68 0 1.36 0 0 Z " fill="#0B68E3" transform="translate(38,194)"/>
<path d="M0 0 C0.66 0 1.32 0 2 0 C1.97679688 0.85722656 1.95359375 1.71445313 1.9296875 2.59765625 C1.54657528 11.5727683 1.54657528 11.5727683 4 20 C6.31462467 21.48071832 8.34016953 22.16264596 11 23 C11 23.33 11 23.66 11 24 C8.125 24.125 8.125 24.125 5 24 C4.34 23.34 3.68 22.68 3 22 C2.67 22.66 2.34 23.32 2 24 C1.34 24 0.68 24 0 24 C0 16.08 0 8.16 0 0 Z " fill="#0E6AE4" transform="translate(90,192)"/>
<path d="M0 0 C0.99 0.33 1.98 0.66 3 1 C1.44499019 4.81684226 -1.03595495 7.19195732 -4 10 C-6.62187494 8.95125002 -7.79371361 8.35068687 -9.25 5.875 C-9.4975 5.25625 -9.745 4.6375 -10 4 C-8.68 4 -7.36 4 -6 4 C-3.406659 2.93215371 -2.002501 2.002501 0 0 Z " fill="#F1F5FD" transform="translate(149,80)"/>
<path d="M0 0 C3.96 1.98 3.96 1.98 8 4 C8 4.99 8 5.98 8 7 C2.74285714 11 2.74285714 11 0 11 C0 7.37 0 3.74 0 0 Z " fill="#2B75E5" transform="translate(84,51)"/>
<path d="M0 0 C0.99 0 1.98 0 3 0 C4.04167441 4.09725269 3.94409525 7.61495224 3.5625 11.8125 C3.46066406 12.97394531 3.35882813 14.13539063 3.25390625 15.33203125 C3.17011719 16.21246094 3.08632812 17.09289062 3 18 C2.01 18 1.02 18 0 18 C0 12.06 0 6.12 0 0 Z " fill="#3078E6" transform="translate(192,198)"/>
<path d="M0 0 C0.99 0.33 1.98 0.66 3 1 C1.44499019 4.81684226 -1.03595495 7.19195732 -4 10 C-5.9375 9.3125 -5.9375 9.3125 -8 8 C-8.75 5.375 -8.75 5.375 -9 3 C-8.01 3 -7.02 3 -6 3 C-6 3.66 -6 4.32 -6 5 C-5.071875 4.154375 -4.14375 3.30875 -3.1875 2.4375 C-1.60546875 0.99609375 -1.60546875 0.99609375 0 0 Z " fill="#F2F6FD" transform="translate(115,80)"/>
<path d="M0 0 C1.53266582 3.06533164 1.10276471 6.26754272 1.0625 9.625 C1.05798828 10.33140625 1.05347656 11.0378125 1.04882812 11.765625 C1.03703875 13.51045275 1.01910324 15.255237 1 17 C0.34 17 -0.32 17 -1 17 C-1.33 12.05 -1.66 7.1 -2 2 C-4.31 2 -6.62 2 -9 2 C-9 1.34 -9 0.68 -9 0 C-5.88173308 -1.55913346 -3.32926126 -0.66585225 0 0 Z " fill="#0867E3" transform="translate(205,199)"/>
<path d="M0 0 C0.66 0 1.32 0 2 0 C2 5.94 2 11.88 2 18 C1.34 18 0.68 18 0 18 C0 17.34 0 16.68 0 16 C-0.99 16.66 -1.98 17.32 -3 18 C-5.6875 18.125 -5.6875 18.125 -8 18 C-6.60683123 15.21366246 -4.84019484 15.06507306 -2 14 C-0.12175109 12.12175109 -0.60897603 8.96064724 -0.4375 6.4375 C-0.35371094 5.23996094 -0.26992187 4.04242188 -0.18359375 2.80859375 C-0.12300781 1.88175781 -0.06242187 0.95492187 0 0 Z " fill="#106BE4" transform="translate(83,198)"/>
<path d="M0 0 C0.66 0.33 1.32 0.66 2 1 C2 1.66 2 2.32 2 3 C4.64 3 7.28 3 10 3 C10.33 3.66 10.66 4.32 11 5 C7.7 5.33 4.4 5.66 1 6 C0.34 7.98 -0.32 9.96 -1 12 C-1.99 12 -2.98 12 -4 12 C-3.33501617 7.61110675 -1.81242323 4.0188515 0 0 Z " fill="#0E6AE4" transform="translate(120,204)"/>
<path d="M0 0 C2 1 2 1 3.125 3.8125 C4 7 4 7 4 11 C1.69 11 -0.62 11 -3 11 C-2.32829194 7.1936543 -1.27253436 3.64793184 0 0 Z " fill="#ECF2FC" transform="translate(125,196)"/>
<path d="M0 0 C3.65316671 1.24976756 4.78065836 1.67098753 7 5 C7.25760279 7.69452521 7.08900053 10.28548375 7 13 C6.01 12.67 5.02 12.34 4 12 C3.67 9.69 3.34 7.38 3 5 C1.02 4.34 -0.96 3.68 -3 3 C-2.01 2.67 -1.02 2.34 0 2 C0 1.34 0 0.68 0 0 Z " fill="#387EE7" transform="translate(182,198)"/>
<path d="M0 0 C0.33 0 0.66 0 1 0 C1.02578125 0.77085937 1.0515625 1.54171875 1.078125 2.3359375 C1.13484375 3.33882812 1.1915625 4.34171875 1.25 5.375 C1.29640625 6.37273437 1.3428125 7.37046875 1.390625 8.3984375 C1.72160885 11.1526477 1.72160885 11.1526477 4.046875 12.3515625 C4.69140625 12.56554687 5.3359375 12.77953125 6 13 C6 13.66 6 14.32 6 15 C3.625 15.125 3.625 15.125 1 15 C-1 13 -1 13 -1.23046875 10.21484375 C-1.21628906 9.13332031 -1.20210937 8.05179688 -1.1875 6.9375 C-1.18105469 5.85339844 -1.17460937 4.76929688 -1.16796875 3.65234375 C-1 1 -1 1 0 0 Z " fill="#2170E5" transform="translate(158,201)"/>
<path d="M0 0 C0.66 0.33 1.32 0.66 2 1 C1.64989059 9.35010941 1.64989059 9.35010941 -1.0625 12.0625 C-1.701875 12.371875 -2.34125 12.68125 -3 13 C-3 9 -3 9 -2 8 C-1.835 6.845 -1.67 5.69 -1.5 4.5 C-1 1 -1 1 0 0 Z " fill="#2E79E6" transform="translate(104,203)"/>
<path d="M0 0 C1.875 1.375 1.875 1.375 3 3 C3 3.66 3 4.32 3 5 C2.06027344 4.87431641 2.06027344 4.87431641 1.1015625 4.74609375 C-0.12433594 4.59333984 -0.12433594 4.59333984 -1.375 4.4375 C-2.59316406 4.28087891 -2.59316406 4.28087891 -3.8359375 4.12109375 C-6.04899186 3.81762672 -6.04899186 3.81762672 -8 5 C-8.66 4.34 -9.32 3.68 -10 3 C-6.70836605 -0.03843134 -4.43945893 -0.56673944 0 0 Z " fill="#2D79E6" transform="translate(149,198)"/>
<path d="M0 0 C2.97 0 5.94 0 9 0 C9 1.98 9 3.96 9 6 C8.01 5.67 7.02 5.34 6 5 C6 4.34 6 3.68 6 3 C4.02 3 2.04 3 0 3 C0 2.01 0 1.02 0 0 Z " fill="#397CE6" transform="translate(16,204)"/>
<path d="M0 0 C3.88862987 1.26117725 5.89375599 2.45264167 8 6 C8 6.66 8 7.32 8 8 C7.01 8 6.02 8 5 8 C4.566875 7.360625 4.13375 6.72125 3.6875 6.0625 C2.08674484 3.67933367 2.08674484 3.67933367 -1.1875 3.25 C-2.115625 3.1675 -3.04375 3.085 -4 3 C-2.68 2.67 -1.36 2.34 0 2 C0 1.34 0 0.68 0 0 Z " fill="#3D80E7" transform="translate(17,192)"/>
<path d="M0 0 C0 0.66 0 1.32 0 2 C-1.65071396 3.02611949 -3.31970006 4.02308143 -5 5 C-6.75149165 6.58245275 -6.75149165 6.58245275 -8 8 C-8.33 7.01 -8.66 6.02 -9 5 C-4.5 0 -4.5 0 0 0 Z " fill="#2674E5" transform="translate(182,198)"/>
<path d="M0 0 C0.66 0 1.32 0 2 0 C2 1.32 2 2.64 2 4 C3.32 4 4.64 4 6 4 C6 4.66 6 5.32 6 6 C3.03 6 0.06 6 -3 6 C-3 5.34 -3 4.68 -3 4 C-2.01 4 -1.02 4 0 4 C0 2.68 0 1.36 0 0 Z " fill="#1B6EE4" transform="translate(38,194)"/>
<path d="M0 0 C1.125 1.5625 1.125 1.5625 2 4 C1.125 7.75 1.125 7.75 0 11 C-0.99 11 -1.98 11 -3 11 C-2.32829194 7.1936543 -1.27253436 3.64793184 0 0 Z " fill="#2674E5" transform="translate(119,205)"/>
<path d="M0 0 C0.33 0 0.66 0 1 0 C1.73030908 6.21324498 2.23180249 11.84098757 1 18 C0.67 18 0.34 18 0 18 C-0.90375653 11.67370431 -0.90375653 6.32629569 0 0 Z " fill="#6697EB" transform="translate(92,192)"/>
<path d="M0 0 C0.33 0.99 0.66 1.98 1 3 C0.01 3.33 -0.98 3.66 -2 4 C-2 3.34 -2 2.68 -2 2 C-4.31 2 -6.62 2 -9 2 C-9 1.34 -9 0.68 -9 0 C-5.93109813 -1.53445094 -3.29905734 -0.54984289 0 0 Z " fill="#2072E5" transform="translate(205,199)"/>
<path d="M0 0 C5.53846154 -0.36923077 5.53846154 -0.36923077 7.875 1.5 C8.24625 1.995 8.6175 2.49 9 3 C8.34 3.66 7.68 4.32 7 5 C6.34 4.34 5.68 3.68 5 3 C1.91652174 2.83318891 1.91652174 2.83318891 -1 3 C-0.67 2.01 -0.34 1.02 0 0 Z " fill="#2072E5" transform="translate(214,198)"/>
<path d="M0 0 C-0.25 2.375 -0.25 2.375 -1 5 C-3.0625 6.3125 -3.0625 6.3125 -5 7 C-5.33 6.01 -5.66 5.02 -6 4 C-2.25 0 -2.25 0 0 0 Z " fill="#2675E5" transform="translate(24,209)"/>
<path d="M0 0 C0.66 0 1.32 0 2 0 C2 3.3 2 6.6 2 10 C1.01 9.67 0.02 9.34 -1 9 C-1.09765625 2.84765625 -1.09765625 2.84765625 -1 1 C-0.67 0.67 -0.34 0.34 0 0 Z " fill="#0F6BE4" transform="translate(139,202)"/>
<path d="M0 0 C0.66 0.33 1.32 0.66 2 1 C2.73075648 3.3140622 3.40138258 5.64828869 4 8 C3.01 8 2.02 8 1 8 C0.34 5.69 -0.32 3.38 -1 1 C-0.67 0.67 -0.34 0.34 0 0 Z " fill="#1C6FE4" transform="translate(132,208)"/>
<path d="M0 0 C3.41021743 0.78697325 6.68885166 1.87119943 10 3 C10 3.33 10 3.66 10 4 C7.36 4 4.72 4 2 4 C1.34 2.68 0.68 1.36 0 0 Z " fill="#1D70E5" transform="translate(210,212)"/>
<path d="M0 0 C2 3 2 3 2 6 C0.68 6 -0.64 6 -2 6 C-1.125 1.125 -1.125 1.125 0 0 Z " fill="#4284E8" transform="translate(212,199)"/>
</svg>
