<?xml version="1.0" encoding="UTF-8"?>
<svg version="1.1" xmlns="http://www.w3.org/2000/svg" width="364" height="364">
<path d="M0 0 C120.12 0 240.24 0 364 0 C364 120.12 364 240.24 364 364 C243.88 364 123.76 364 0 364 C0 243.88 0 123.76 0 0 Z " fill="#FEFEFE" transform="translate(0,0)"/>
<path d="M0 0 C3.67913007 1.29973006 6.29280187 3.22436335 8.9375 6.125 C10.53782325 10.45528645 10.65100955 14.44293313 10 19 C7.66932175 23.84063945 4.77923201 26.56352878 0 29 C-4.50803192 29.47452968 -8.06995159 29.31772086 -12 27 C-14.2073386 24.81893924 -16.24249168 22.56076814 -18 20 C-18 19.34 -18 18.68 -18 18 C-21.45900478 18.1095693 -24.91689109 18.24026848 -28.375 18.375 C-29.35984375 18.4059375 -30.3446875 18.436875 -31.359375 18.46875 C-32.77089844 18.52675781 -32.77089844 18.52675781 -34.2109375 18.5859375 C-35.51490479 18.63306885 -35.51490479 18.63306885 -36.84521484 18.68115234 C-39.20961794 18.81229433 -39.20961794 18.81229433 -41 21 C-41.56860506 23.03087007 -41.56860506 23.03087007 -41.9375 25.3125 C-42.5436215 28.39238566 -43.03191694 30.05015519 -44.75 32.75 C-46.32590725 34.97220946 -46.32590725 34.97220946 -45.3125 37.5625 C-44.54787112 38.98252505 -43.77910783 40.40036705 -43 41.8125 C-41.49901612 45.09590224 -40.81977848 48.48666364 -40 52 C-37.69 52.66 -35.38 53.32 -33 54 C-32.690625 52.9171875 -32.690625 52.9171875 -32.375 51.8125 C-30.34230405 47.65471282 -27.17179512 45.08589756 -23 43 C-17.74810993 42.59600846 -14.43118526 43.11009657 -10 46 C-6.6697433 49.36616244 -4.19873711 52.34385744 -3.625 57.125 C-4.17375444 62.79546254 -6.68802672 66.80838975 -10.80078125 70.70703125 C-15.11709231 73.24468482 -20.16899883 72.58898507 -25 72 C-28.73158039 70.01997775 -29.69282843 68.80834625 -31.1875 64.875 C-32.65977551 61.8247765 -32.65977551 61.8247765 -35.23046875 61.3828125 C-37.00496859 61.12594251 -38.77971278 60.87075532 -40.5546875 60.6171875 C-44.62102403 59.59085975 -45.77952443 57.46949307 -48 54 C-48.4125 53.38125 -48.825 52.7625 -49.25 52.125 C-50.4198942 48.81029977 -50.65067131 45.49328686 -51 42 C-54.96 41.34 -58.92 40.68 -63 40 C-63.66 41.65 -64.32 43.3 -65 45 C-70.15185294 49.63666765 -73.41774334 50.4051357 -80.23046875 50.3515625 C-84.58425102 49.7988962 -86.11527446 48.25456215 -89 45 C-89.28488281 44.29875 -89.56976563 43.5975 -89.86328125 42.875 C-90.84249078 40.77863352 -90.84249078 40.77863352 -93.1640625 40.390625 C-93.97617188 40.34421875 -94.78828125 40.2978125 -95.625 40.25 C-96.85089844 40.16492188 -96.85089844 40.16492188 -98.1015625 40.078125 C-98.72804688 40.05234375 -99.35453125 40.0265625 -100 40 C-100.2475 40.7425 -100.495 41.485 -100.75 42.25 C-102.49176218 46.0818768 -104.59612729 48.15767637 -108.1875 50.3125 C-113.44505541 51.59768021 -118.20386851 51.05425109 -122.875 48.3125 C-127.11426185 43.69918563 -128.63098925 39.43978179 -128.421875 33.25 C-127.70967793 29.45161563 -125.77860619 26.63967588 -123 24 C-118.57410089 21.23727801 -114.06129036 21.35470492 -109 22 C-104.96867639 23.49608536 -102.41715907 25.3742614 -100 29 C-100 29.99 -100 30.98 -100 32 C-97.03 32 -94.06 32 -91 32 C-90.79375 31.278125 -90.5875 30.55625 -90.375 29.8125 C-88.59442222 26.17040909 -86.6406701 23.75905645 -83 22 C-77.6330393 21.07493694 -73.38794483 21.30602759 -68.5 23.75 C-66.29238084 25.73685724 -64.52542105 27.45763158 -63 30 C-63 30.66 -63 31.32 -63 32 C-61.56138706 31.91253716 -60.12402492 31.80434652 -58.6875 31.6875 C-57.88699219 31.62949219 -57.08648437 31.57148438 -56.26171875 31.51171875 C-53.55163346 30.8985561 -52.62977221 30.23207934 -51 28 C-50.43182668 25.96465171 -50.43182668 25.96465171 -50.1875 23.75 C-49.20895434 18.63145349 -46.80876122 15.47756459 -43 12 C-40.44276771 10.72138385 -38.63262898 10.88663391 -35.7734375 10.90234375 C-34.7421875 10.90556641 -33.7109375 10.90878906 -32.6484375 10.91210938 C-31.56820312 10.92048828 -30.48796875 10.92886719 -29.375 10.9375 C-27.74304688 10.94426758 -27.74304688 10.94426758 -26.078125 10.95117188 C-23.38536211 10.96298224 -20.69270812 10.97945222 -18 11 C-17.86134521 10.21214111 -17.72269043 9.42428223 -17.57983398 8.61254883 C-16.75584481 4.89991383 -15.06853823 3.48695954 -12.16015625 1.17578125 C-8.17583114 -0.99290204 -4.37473639 -0.82157971 0 0 Z " fill="#EA5377" transform="translate(176,146)"/>
<path d="M0 0 C3.85544798 1.99657127 5.59805092 3.39707638 8 7 C8.36662773 10.44630063 8.37586669 12.35077572 6.625 15.375 C6.08875 15.91125 5.5525 16.4475 5 17 C4.34 17 3.68 17 3 17 C3 17.66 3 18.32 3 19 C3.61875 19.28875 4.2375 19.5775 4.875 19.875 C7 21 7 21 9 23 C9.6806846 29.9202934 9.6806846 29.9202934 7.1875 33.875 C2.34608543 38.57808844 -1.31872534 38.47421296 -7.81640625 38.39453125 C-12.4186931 37.8241865 -14.02360498 36.47246085 -17 33 C-18.59138038 29.81723924 -18.39713508 26.4646612 -18 23 C-16.625 20.5 -16.625 20.5 -15 19 C-14.34 19 -13.68 19 -13 19 C-13.66 18.154375 -14.32 17.30875 -15 16.4375 C-17.34795692 12.40194904 -17.89999651 10.58180039 -17 6 C-12.76967083 -0.14952004 -7.08467577 -1.38892326 0 0 Z " fill="#1C1F3A" transform="translate(271,159)"/>
<path d="M0 0 C3.43429913 1.71714956 5.4344102 2.85743187 7.15185547 6.3269043 C8.02758476 9.08693884 8.23070714 11.19736809 8.1953125 14.08203125 C8.18886719 15.01337891 8.18242187 15.94472656 8.17578125 16.90429688 C8.15902344 17.86400391 8.14226562 18.82371094 8.125 19.8125 C8.11597656 20.79154297 8.10695312 21.77058594 8.09765625 22.77929688 C8.07417182 25.18645061 8.0413284 27.59309743 8 30 C5.36 30 2.72 30 0 30 C-0.02505615 29.36908447 -0.0501123 28.73816895 -0.07592773 28.08813477 C-0.19154137 25.24603175 -0.31442316 22.40428917 -0.4375 19.5625 C-0.47681641 18.56927734 -0.51613281 17.57605469 -0.55664062 16.55273438 C-0.59853516 15.60849609 -0.64042969 14.66425781 -0.68359375 13.69140625 C-0.72025146 12.81685791 -0.75690918 11.94230957 -0.79467773 11.04125977 C-0.78181066 9.0072598 -0.78181066 9.0072598 -2 8 C-3.87321948 7.83946185 -3.87321948 7.83946185 -6 7.875 C-6.721875 7.87242187 -7.44375 7.86984375 -8.1875 7.8671875 C-10.02089415 7.80304724 -10.02089415 7.80304724 -11 9 C-11.15686249 10.55948542 -11.25076639 12.12542668 -11.31640625 13.69140625 C-11.35830078 14.63564453 -11.40019531 15.57988281 -11.44335938 16.55273438 C-11.48267578 17.54595703 -11.52199219 18.53917969 -11.5625 19.5625 C-11.60568359 20.55958984 -11.64886719 21.55667969 -11.69335938 22.58398438 C-11.79980298 25.0558415 -11.90181928 27.5278031 -12 30 C-14.64 30 -17.28 30 -20 30 C-20 20.43 -20 10.86 -20 1 C-17.69 1 -15.38 1 -13 1 C-13 1.66 -13 2.32 -13 3 C-12.34 2.505 -11.68 2.01 -11 1.5 C-7.25634215 -0.37182893 -4.07118515 -0.71703848 0 0 Z " fill="#232640" transform="translate(236,167)"/>
<path d="M0 0 C4.04152267 2.09560435 6.35473476 3.7622817 8 8 C8.22705078 10.47363281 8.22705078 10.47363281 8.1953125 13.203125 C8.18886719 14.1828125 8.18242187 15.1625 8.17578125 16.171875 C8.15902344 17.18765625 8.14226562 18.2034375 8.125 19.25 C8.11597656 20.28125 8.10695313 21.3125 8.09765625 22.375 C8.07412011 24.91690287 8.04124023 27.4583328 8 30 C5.36 30 2.72 30 0 30 C-0.01981934 29.40461426 -0.03963867 28.80922852 -0.06005859 28.19580078 C-0.15516126 25.50507847 -0.26489842 22.81514852 -0.375 20.125 C-0.4059375 19.18785156 -0.436875 18.25070313 -0.46875 17.28515625 C-0.50742187 16.38925781 -0.54609375 15.49335938 -0.5859375 14.5703125 C-0.6173584 13.74289551 -0.6487793 12.91547852 -0.68115234 12.06298828 C-0.82599137 9.78013915 -0.82599137 9.78013915 -3 8 C-6.5 7.66666667 -6.5 7.66666667 -10 8 C-12.3968665 10.3968665 -12.28281133 11.07028314 -12.4140625 14.3515625 C-12.45273437 15.20234375 -12.49140625 16.053125 -12.53125 16.9296875 C-12.5621875 17.81914062 -12.593125 18.70859375 -12.625 19.625 C-12.68300781 20.97078125 -12.68300781 20.97078125 -12.7421875 22.34375 C-12.83659357 24.5622927 -12.92216748 26.78082403 -13 29 C-15.31 29 -17.62 29 -20 29 C-20 19.76 -20 10.52 -20 1 C-17.69 1 -15.38 1 -13 1 C-13 1.99 -13 2.98 -13 4 C-12.34 4 -11.68 4 -11 4 C-10.67 3.01 -10.34 2.02 -10 1 C-6.78501861 -0.6074907 -3.48701742 -0.47314549 0 0 Z " fill="#1E213C" transform="translate(309,167)"/>
<path d="M0 0 C2.4375 1.0625 2.4375 1.0625 4 3 C4.56988508 6.91795996 4.59460908 9.07240983 2.4375 12.4375 C-0.92759017 14.59460908 -3.08204004 14.56988508 -7 14 C-8.9375 12.4375 -8.9375 12.4375 -10 10 C-10.61818182 4.12727273 -10.61818182 4.12727273 -8.9375 1.0625 C-5.87116726 -0.61903731 -3.42486249 -0.36051184 0 0 Z " fill="#FDF6F8" transform="translate(102,175)"/>
<path d="M0 0 C2.9375 1.5625 2.9375 1.5625 5 4 C5 7.5178705 4.64848537 9.88316408 2.875 12.9375 C-0.22289358 14.69297303 -2.52844534 14.48723574 -6 14 C-8.69500656 11.58140437 -9.80636871 9.99236035 -10.5 6.4375 C-9.31198114 0.64590806 -5.51376592 -0.90020668 0 0 Z " fill="#FDF6F8" transform="translate(65,175)"/>
<path d="M0 0 C2.875 1.625 2.875 1.625 5 4 C5.68551032 7.65605504 5.48491197 9.2629338 3.4375 12.375 C0.04129157 14.63913895 -2.00099302 14.64269755 -6 14 C-8.5 11.875 -8.5 11.875 -10 9 C-9.93572343 5.78617168 -9.53112958 3.83862565 -7.8125 1.125 C-5.04344866 -0.59372152 -3.19642588 -0.44749962 0 0 Z " fill="#FDF6F7" transform="translate(174,153)"/>
<path d="M0 0 C2.4375 1.0625 2.4375 1.0625 4 3 C4.57491549 6.95254396 4.61372366 9.07941451 2.375 12.4375 C-0.7370662 14.48491197 -2.34394496 14.68551032 -6 14 C-8.93558002 11.3734284 -9.89023229 9.78405505 -10.4375 5.875 C-10 3 -10 3 -8.9375 1.125 C-5.88405803 -0.64796631 -3.45262038 -0.36343372 0 0 Z " fill="#FEF7F9" transform="translate(160,197)"/>
<path d="M0 0 C3.0625 0.25 3.0625 0.25 6.0625 2.25 C6.375 5.75 6.375 5.75 6.0625 9.25 C4.0625 11.25 4.0625 11.25 0.5625 11.5 C-2.9375 11.25 -2.9375 11.25 -4.9375 9.25 C-5.1875 5.75 -5.1875 5.75 -4.9375 2.25 C-2.9375 0.25 -2.9375 0.25 0 0 Z " fill="#F3F3F5" transform="translate(265.9375,179.75)"/>
<path d="M0 0 C2.5 0.25 2.5 0.25 4.5 2.25 C4.75 5.25 4.75 5.25 4.5 8.25 C2.5 10.25 2.5 10.25 -0.5 10.5625 C-1.49 10.459375 -2.48 10.35625 -3.5 10.25 C-5.5 7.25 -5.5 7.25 -5.25 4.6875 C-4.24098289 1.40819438 -3.4742892 0.34742892 0 0 Z " fill="#ECECEE" transform="translate(266.5,163.75)"/>
<path d="M0 0 C0.66 0 1.32 0 2 0 C0.50902342 3.7952131 -1.75700849 5.61042731 -5 8 C-4.1875 5.5625 -4.1875 5.5625 -3 3 C-2.01 2.67 -1.02 2.34 0 2 C0 1.34 0 0.68 0 0 Z " fill="#383B53" transform="translate(258,176)"/>
</svg>
