<?xml version="1.0" encoding="UTF-8"?>
<svg version="1.1" xmlns="http://www.w3.org/2000/svg" width="267" height="189">
<path d="M0 0 C88.11 0 176.22 0 267 0 C267 62.37 267 124.74 267 189 C178.89 189 90.78 189 0 189 C0 126.63 0 64.26 0 0 Z " fill="#FEFEFE" transform="translate(0,0)"/>
<path d="M0 0 C6.72 0.72 6.72 0.72 8 2 C8.04080783 3.99958364 8.04254356 6.00045254 8 8 C10.8754593 8.73940382 12.70408328 9.07045636 15.625 8.375 C18 8 18 8 19.875 9.125 C21 11 21 11 20.75 13.625 C20 16 20 16 19 17 C18.95936168 18.66617115 18.957279 20.33388095 19 22 C21.475 22.99 21.475 22.99 24 24 C24 26.31 24 28.62 24 31 C20.04 32.485 20.04 32.485 16 34 C16.268125 35.2375 16.53625 36.475 16.8125 37.75 C17.109375 39.953125 17.109375 39.953125 17 42 C14.5625 44.5 14.5625 44.5 12 46 C11.4225 45.690625 10.845 45.38125 10.25 45.0625 C7.03726202 43.54537373 4.55721585 43 1 43 C1 44.65 1 46.3 1 48 C-1.64 48 -4.28 48 -7 48 C-7.99 44.535 -7.99 44.535 -9 41 C-12.32534757 39.89155081 -14.62182575 40.15545644 -18 41 C-19.32 39.35 -20.64 37.7 -22 36 C-21.71125 35.46375 -21.4225 34.9275 -21.125 34.375 C-19.83288192 31.64719516 -18.91441408 28.87387282 -18 26 C-18.804375 26.020625 -19.60875 26.04125 -20.4375 26.0625 C-23 26 -23 26 -24 25 C-23.91062197 23.47480724 -23.75462854 21.95318071 -23.5625 20.4375 C-23.40974609 19.19806641 -23.40974609 19.19806641 -23.25390625 17.93359375 C-23.17011719 17.29550781 -23.08632812 16.65742187 -23 16 C-20.69 16 -18.38 16 -16 16 C-15.3185177 14.10820797 -15.3185177 14.10820797 -15 12 C-15.66 11.34 -16.32 10.68 -17 10 C-16.81975237 7.20616178 -16.17554036 6.17554036 -14.1875 4.1875 C-12 3 -12 3 -9.8125 3.1875 C-8 4 -8 4 -7 6 C-5.02 6 -3.04 6 -1 6 C-1.020625 5.195625 -1.04125 4.39125 -1.0625 3.5625 C-1 1 -1 1 0 0 Z " fill="#060606" transform="translate(168,37)"/>
<path d="M0 0 C0.82242188 0.01353516 1.64484375 0.02707031 2.4921875 0.04101562 C4.49508221 0.07594984 6.49763356 0.12973943 8.5 0.1875 C8.5 4.1875 8.5 4.1875 6.6875 6.375 C2.7671593 8.60421334 -0.21917493 8.59890582 -4.65234375 8.85546875 C-13.43511933 9.87952352 -21.59304293 15.40219008 -27.11328125 22.125 C-30.57900383 27.27965218 -32.40927885 33.11833878 -33.5 39.1875 C-34.21285156 39.35765625 -34.92570312 39.5278125 -35.66015625 39.703125 C-43.88679525 41.78469718 -50.56857992 43.79036988 -55.5 51.1875 C-57.52646498 57.26689494 -57.68287774 64.16679543 -55.3359375 70.16015625 C-52.64693584 74.84177708 -50.38498765 77.71123898 -45.5 80.1875 C-44.18 80.5175 -42.86 80.8475 -41.5 81.1875 C-41.5 84.1575 -41.5 87.1275 -41.5 90.1875 C-50.01153809 89.54913464 -55.52810896 84.60926702 -60.95703125 78.4453125 C-64.71177836 72.95102433 -66.01130423 67.82884563 -65.875 61.25 C-65.86557373 60.54633301 -65.85614746 59.84266602 -65.84643555 59.11767578 C-65.63455324 51.83601532 -64.1773163 46.18646662 -59.14453125 40.63671875 C-53.67467484 35.81648899 -47.8280515 32.50611093 -40.5 32.1875 C-40.4175 31.3625 -40.335 30.5375 -40.25 29.6875 C-38.27553366 20.47332373 -32.6167349 12.92352865 -25.0390625 7.390625 C-16.75158158 2.23963686 -9.77796335 -0.31053792 0 0 Z " fill="#080808" transform="translate(134.5,41.8125)"/>
<path d="M0 0 C3.63 0 7.26 0 11 0 C12.27193017 3.16622996 13.54257301 6.33296665 14.8125 9.5 C15.34713867 10.8303125 15.34713867 10.8303125 15.89257812 12.1875 C16.93511216 14.78905283 17.96964552 17.39360158 19 20 C19.30728027 20.77085937 19.61456055 21.54171875 19.93115234 22.3359375 C21.11072389 25.36496073 22 27.7193578 22 31 C18.7 31 15.4 31 12 31 C11.67 29.68 11.34 28.36 11 27 C7.37 26.67 3.74 26.34 0 26 C-0.33 27.65 -0.66 29.3 -1 31 C-4.3 31 -7.6 31 -11 31 C-9.24256465 23.9702586 -7.07716052 17.46712876 -4.20703125 10.81640625 C-2.67932816 7.25176572 -1.33074163 3.64202972 0 0 Z " fill="#0A0A0A" transform="translate(112,121)"/>
<path d="M0 0 C5.0428125 -0.1546875 5.0428125 -0.1546875 10.1875 -0.3125 C11.76374146 -0.38078003 11.76374146 -0.38078003 13.37182617 -0.45043945 C18.00110755 -0.5192417 20.29551202 -0.50845654 24.14453125 2.26953125 C26.7316437 6.07667146 26.84246179 8.56363204 26 13 C23.86111111 17.56944444 23.86111111 17.56944444 21 19 C18.95944995 19.07065617 16.91665743 19.08421976 14.875 19.0625 C11.966875 19.0315625 11.966875 19.0315625 9 19 C9 22.96 9 26.92 9 31 C6.03 31 3.06 31 0 31 C0 20.77 0 10.54 0 0 Z " fill="#040404" transform="translate(137,121)"/>
<path d="M0 0 C8.47291247 10.19581668 10.11355657 20.1055211 9 33 C7.43489029 40.62990985 4.0917313 47.05114219 -2 52 C-12.03426124 58 -12.03426124 58 -16 58 C-16.63657224 54.81713882 -16.8596099 52.15362907 -16 49 C-13.63808493 47.04942969 -11.20679612 45.79034886 -8.484375 44.39453125 C-4.22598869 42.00421063 -2.73807369 38.58685842 -0.75 34.3125 C1.06010976 26.31784854 0.59359737 18.42676789 -3 11 C-4.31543279 9.31916921 -5.64316249 7.6475884 -7 6 C-5.81636731 2.44910192 -3.99368042 0 0 0 Z " fill="#080808" transform="translate(200,73)"/>
<path d="M0 0 C3.3 0 6.6 0 10 0 C10 10.23 10 20.46 10 31 C6.7 31 3.4 31 0 31 C0 20.77 0 10.54 0 0 Z " fill="#0D0D0D" transform="translate(167,121)"/>
<path d="M0 0 C2.9375 2.4375 2.9375 2.4375 5 5 C5.33 5.33 5.66 5.66 6 6 C6.42086328 10.62949609 5.86788177 13.31272343 3 17 C-0.42159595 19.56619697 -3.84844133 19.50984054 -8 19 C-11.60521591 16.02177816 -13.79128467 13.87843794 -14.3125 9.1875 C-13.92835642 5.2692355 -12.70743683 3.78706733 -10 1 C-6.78540014 -0.60729993 -3.47611897 -0.61930855 0 0 Z " fill="#F4F4F4" transform="translate(172,52)"/>
<path d="M0 0 C2.248125 -0.04125 4.49625 -0.0825 6.8125 -0.125 C8.07707031 -0.14820312 9.34164062 -0.17140625 10.64453125 -0.1953125 C14 0 14 0 17 2 C17.42905061 5.94726562 17.08466413 8.61242079 15 12 C15.495 12.598125 15.99 13.19625 16.5 13.8125 C18 16 18 16 18 19 C16.02 19 14.04 19 12 19 C11.0234375 17.20963542 10.046875 15.41927083 9.0703125 13.62890625 C8.08589976 11.83381685 8.08589976 11.83381685 6 11 C6 13.64 6 16.28 6 19 C4.02 19 2.04 19 0 19 C0 12.73 0 6.46 0 0 Z " fill="#101010" transform="translate(102,95)"/>
<path d="M0 0 C5.28 0 10.56 0 16 0 C16 1.32 16 2.64 16 4 C12.7 4 9.4 4 6 4 C6 4.99 6 5.98 6 7 C8.97 7 11.94 7 15 7 C15 8.32 15 9.64 15 11 C12.03 11 9.06 11 6 11 C6 12.32 6 13.64 6 15 C9.3 15 12.6 15 16 15 C16 16.32 16 17.64 16 19 C10.72 19 5.44 19 0 19 C0 12.73 0 6.46 0 0 Z " fill="#131313" transform="translate(122,95)"/>
<path d="M0 0 C3.43522237 0.06084935 4.35512495 0.17094813 7.1875 2.3125 C8.625 4.375 8.625 4.375 8.625 5.375 C4.67772412 5.55442163 2.0269487 5.46850689 -1.375 3.375 C-1.045 4.365 -0.715 5.355 -0.375 6.375 C1.94347874 7.0916207 4.27819703 7.75742027 6.625 8.375 C8.625 10.375 8.625 10.375 8.9375 13.3125 C8.625 16.375 8.625 16.375 7.41796875 18.04296875 C5.05416563 19.79908392 3.54646841 19.77608454 0.625 19.75 C-0.24125 19.75773437 -1.1075 19.76546875 -2 19.7734375 C-4.81106469 19.30184441 -5.73168861 18.6777982 -7.375 16.375 C-7.375 15.385 -7.375 14.395 -7.375 13.375 C-5 13.25 -5 13.25 -2.375 13.375 C-1.715 14.035 -1.055 14.695 -0.375 15.375 C0.615 15.375 1.605 15.375 2.625 15.375 C2.955 14.385 3.285 13.395 3.625 12.375 C2.5525 12.2925 1.48 12.21 0.375 12.125 C-3.375 11.375 -3.375 11.375 -5.875 9.625 C-7.375 7.375 -7.375 7.375 -7.25 4.75 C-5.74447973 0.66358784 -4.12158737 0.06846491 0 0 Z " fill="#0B0B0B" transform="translate(147.375,94.625)"/>
<path d="M0 0 C5.94 0 11.88 0 18 0 C18 1.65 18 3.3 18 5 C16.02 5 14.04 5 12 5 C12 9.62 12 14.24 12 19 C10.02 19 8.04 19 6 19 C6 14.38 6 9.76 6 5 C4.02 5 2.04 5 0 5 C0 3.35 0 1.7 0 0 Z " fill="#181818" transform="translate(157,95)"/>
<path d="M0 0 C3.96 0 7.92 0 12 0 C12.33 1.65 12.66 3.3 13 5 C16.3 5.99 19.6 6.98 23 8 C22.67 9.32 22.34 10.64 22 12 C18.58978257 11.21302675 15.31114834 10.12880057 12 9 C11.67 10.98 11.34 12.96 11 15 C10.67 13.68 10.34 12.36 10 11 C6.7 11 3.4 11 0 11 C0 9.68 0 8.36 0 7 C2.97 7 5.94 7 9 7 C9 5.68 9 4.36 9 3 C6.03 3 3.06 3 0 3 C0 2.01 0 1.02 0 0 Z " fill="#EEEEEE" transform="translate(128,99)"/>
<path d="M0 0 C0.33 0 0.66 0 1 0 C1.02689449 2.95839355 1.04678741 5.91654427 1.0625 8.875 C1.07087891 9.71675781 1.07925781 10.55851562 1.08789062 11.42578125 C1.09111328 12.23144531 1.09433594 13.03710938 1.09765625 13.8671875 C1.10289307 14.61081543 1.10812988 15.35444336 1.11352539 16.12060547 C1 18 1 18 0 20 C-2.31 20 -4.62 20 -7 20 C-7 19.67 -7 19.34 -7 19 C-5.02 19 -3.04 19 -1 19 C-1.495 18.0925 -1.99 17.185 -2.5 16.25 C-4.20116107 12.56415102 -4.47477326 10.35649503 -3.125 6.5 C-2.13570144 4.30155875 -1.10961729 2.13997619 0 0 Z " fill="#DFDFDF" transform="translate(121,95)"/>
<path d="M0 0 C2.875 -0.125 2.875 -0.125 6 0 C6.66 0.66 7.32 1.32 8 2 C7.625 4.625 7.625 4.625 7 7 C4.69 7 2.38 7 0 7 C0 4.69 0 2.38 0 0 Z " fill="#E1E1E1" transform="translate(146,127)"/>
<path d="M0 0 C0.66 0.33 1.32 0.66 2 1 C2.59355614 3.64860427 2.74209269 6.29197322 3 9 C1.35 9 -0.3 9 -2 9 C-1.125 2.25 -1.125 2.25 0 0 Z " fill="#F6F6F6" transform="translate(117,131)"/>
<path d="M0 0 C-0.33 1.32 -0.66 2.64 -1 4 C-4.41021743 3.21302675 -7.68885166 2.12880057 -11 1 C-11.33 1.66 -11.66 2.32 -12 3 C-12 2.01 -12 1.02 -12 0 C-7.74433453 -1.16063604 -4.3164922 -0.76173392 0 0 Z " fill="#D1D1D1" transform="translate(151,107)"/>
<path d="M0 0 C0.33 0 0.66 0 1 0 C1 2.97 1 5.94 1 9 C-0.32 7.68 -1.64 6.36 -3 5 C-1.125 1.125 -1.125 1.125 0 0 Z " fill="#F8F8F8" transform="translate(120,103)"/>
<path d="M0 0 C1.65 0 3.3 0 5 0 C5 1.32 5 2.64 5 4 C3.35 4 1.7 4 0 4 C0 2.68 0 1.36 0 0 Z " fill="#D7D7D7" transform="translate(108,99)"/>
<path d="M0 0 C4.95 0.99 4.95 0.99 10 2 C10 2.33 10 2.66 10 3 C5.545 3.495 5.545 3.495 1 4 C0.67 2.68 0.34 1.36 0 0 Z " fill="#BCBCBC" transform="translate(146,98)"/>
</svg>
