<?xml version="1.0" encoding="UTF-8"?>
<svg version="1.1" xmlns="http://www.w3.org/2000/svg" width="1500" height="960">
<path d="M0 0 C495 0 990 0 1500 0 C1500 316.8 1500 633.6 1500 960 C1005 960 510 960 0 960 C0 643.2 0 326.4 0 0 Z " fill="#000000" transform="translate(0,0)"/>
<path d="M0 0 C4.95 0 9.9 0 15 0 C15 22.44 15 44.88 15 68 C10.38 68 5.76 68 1 68 C0.67 66.02 0.34 64.04 0 62 C-0.47050781 62.42152344 -0.94101562 62.84304688 -1.42578125 63.27734375 C-2.04839844 63.82519531 -2.67101562 64.37304688 -3.3125 64.9375 C-3.92738281 65.48277344 -4.54226563 66.02804687 -5.17578125 66.58984375 C-9.71262291 70.09690978 -15.55724456 69.4144627 -21 69 C-27.81552121 66.81388942 -31.51387675 61.67502184 -34.875 55.625 C-37.64130523 47.21082158 -37.37056898 35.0215219 -33.98046875 26.79296875 C-31.31877366 21.92556617 -28.03186603 18.45971105 -23 16 C-19.4765625 15.53125 -19.4765625 15.53125 -15.625 15.5 C-14.35914063 15.4690625 -13.09328125 15.438125 -11.7890625 15.40625 C-8 16 -8 16 -1 21 C-0.67 14.07 -0.34 7.14 0 0 Z " fill="#F6F6F6" transform="translate(716,568)"/>
<path d="M0 0 C1.9375 1.125 1.9375 1.125 3 3 C3.625 5.6875 3.625 5.6875 3 9 C-2.19367003 16.26627023 -9.22738644 22.40254581 -15.515625 28.72436523 C-16.66800994 29.88630762 -17.82022697 31.04841657 -18.97229004 32.2106781 C-22.72765712 35.99716948 -26.48835304 39.77834228 -30.25 43.55859375 C-30.89155533 44.2034464 -31.53311066 44.84829905 -32.19410706 45.51269269 C-38.24913697 51.59845627 -44.30619273 57.68219674 -50.36810303 63.76110744 C-58.10364746 71.5186102 -65.82892548 79.28603536 -73.54071426 87.06715626 C-78.97672839 92.55037326 -84.424154 98.02208569 -89.88018417 103.48538548 C-93.13459533 106.74475177 -96.38375233 110.00898227 -99.62072754 113.28567314 C-102.66113734 116.36290385 -105.71541594 119.42565209 -108.78092957 122.47786903 C-109.90238741 123.59938088 -111.01872835 124.72603664 -112.12947083 125.85816193 C-113.64797952 127.40432667 -115.18393049 128.93080566 -116.72558594 130.45384216 C-117.58021423 131.3127024 -118.43484253 132.17156263 -119.31536865 133.05644894 C-122.60292485 135.43649018 -124.9803671 135.8097407 -129 136 C-131.4375 135.0625 -131.4375 135.0625 -133 133 C-133.71652184 126.08283208 -133.71652184 126.08283208 -131.06903267 122.08185673 C-129.70130116 120.72323851 -129.70130116 120.72323851 -128.30593872 119.33717346 C-127.80098936 118.82468314 -127.29604 118.31219281 -126.77578914 117.78417248 C-125.08526136 116.0781715 -123.36779902 114.40225479 -121.64892578 112.72485352 C-120.42879956 111.50534707 -119.21042739 110.28408351 -117.99368286 109.061203 C-114.68912534 105.7500822 -111.36040254 102.4642682 -108.02665567 99.1825726 C-104.54355248 95.74578624 -101.0827317 92.28670616 -97.61935425 88.83006287 C-91.80299263 83.03116588 -85.97238868 77.24693375 -80.13134766 71.47290039 C-71.88624048 63.32234564 -63.66679659 55.14628907 -55.45250726 46.96469223 C-44.45645862 36.01515346 -33.45331487 25.07253124 -22.41999435 14.16053963 C-21.22347986 12.97656859 -20.02778736 11.79176622 -18.83296204 10.60609055 C-17.20698509 8.99299321 -15.57796892 7.38303207 -13.94802856 5.77394104 C-13.03545351 4.87083474 -12.12287846 3.96772844 -11.18264961 3.03725529 C-7.51121018 -0.38961605 -4.97336797 -0.34900828 0 0 Z " fill="#F8F8F8" transform="translate(801,312)"/>
<path d="M0 0 C4.87795153 3.04566589 7.71939768 6.62298449 9.90234375 11.8984375 C10.96121218 18.2516481 11.02248628 24.46907793 10.96484375 30.8984375 C10.96033203 31.86394531 10.95582031 32.82945312 10.95117188 33.82421875 C10.93949792 36.18235839 10.92312396 38.54036352 10.90234375 40.8984375 C12.22234375 40.8984375 13.54234375 40.8984375 14.90234375 40.8984375 C14.90234375 44.1984375 14.90234375 47.4984375 14.90234375 50.8984375 C4.95452564 51.68241616 4.95452564 51.68241616 0.71484375 48.5234375 C-1.09765625 45.8984375 -1.09765625 45.8984375 -1.09765625 43.8984375 C-1.75765625 43.8984375 -2.41765625 43.8984375 -3.09765625 43.8984375 C-3.32453125 44.4965625 -3.55140625 45.0946875 -3.78515625 45.7109375 C-5.72212824 48.93922415 -8.3672683 50.36345615 -11.9296875 51.46484375 C-19.06475313 52.89185688 -25.76989841 52.51429912 -32.09765625 48.8984375 C-35.08881035 46.30085631 -36.91284206 44.51424158 -37.37109375 40.5078125 C-37.6791922 31.8336562 -37.6791922 31.8336562 -34.97265625 28.3984375 C-29.37166034 23.52800627 -23.5071322 22.1064408 -16.41015625 20.7109375 C-15.55615234 20.53369141 -14.70214844 20.35644531 -13.82226562 20.17382812 C-10.50219049 19.49833758 -7.49583304 18.8984375 -4.09765625 18.8984375 C-5.39920631 14.81879469 -5.39920631 14.81879469 -7.09765625 10.8984375 C-10.69030077 9.70088933 -13.32483099 9.56748792 -17.09765625 9.8984375 C-19.46263064 11.76552255 -20.7579634 13.21905181 -22.09765625 15.8984375 C-26.71765625 15.8984375 -31.33765625 15.8984375 -36.09765625 15.8984375 C-35.87480355 10.43854646 -34.56973353 7.62785483 -31.05859375 3.4765625 C-22.98042559 -3.02459275 -9.5089923 -3.38150798 0 0 Z " fill="#F8F8F8" transform="translate(659.09765625,585.1015625)"/>
<path d="M0 0 C4.95 0 9.9 0 15 0 C15.33 6.93 15.66 13.86 16 21 C17.32 19.68 18.64 18.36 20 17 C24.80686041 14.59656979 32.20350209 15.20237345 37.2734375 16.6484375 C41.71678173 18.91861774 44.21706303 22.46557169 46 27 C46.50679477 30.23307355 46.46896411 33.38638638 46.390625 36.65234375 C46.38496521 37.55247696 46.37930542 38.45261017 46.37347412 39.38002014 C46.3512223 42.23307231 46.30104799 45.08483244 46.25 47.9375 C46.22992048 49.88084114 46.21167226 51.82420211 46.1953125 53.76757812 C46.15139435 58.51221068 46.08244565 63.25588687 46 68 C41.38 68 36.76 68 32 68 C31.9906543 66.93040039 31.98130859 65.86080078 31.97167969 64.75878906 C31.93176488 60.7850603 31.86600279 56.81210456 31.79248047 52.83886719 C31.76427933 51.12021831 31.74306046 49.40143995 31.72900391 47.68261719 C31.70756167 45.20961253 31.66090844 42.73816325 31.609375 40.265625 C31.60814636 39.49881409 31.60691772 38.73200317 31.60565186 37.94195557 C31.50998719 34.44672623 31.27316344 32.37257558 29.18066406 29.51855469 C25.95049165 27.26915115 23.83414025 27.38379889 20 28 C16.91397527 30.86732191 16.06061158 32.58024585 15.45410156 36.78051758 C15.41315654 38.23476638 15.39304121 39.68970816 15.390625 41.14453125 C15.37408875 41.91431808 15.35755249 42.68410492 15.34051514 43.47721863 C15.29214714 45.92239447 15.27069035 48.36694896 15.25 50.8125 C15.22183075 52.47594253 15.19190198 54.13935626 15.16015625 55.80273438 C15.08309419 59.86877219 15.04247658 63.93286718 15 68 C10.05 68 5.1 68 0 68 C0 45.56 0 23.12 0 0 Z " fill="#F9F9F9" transform="translate(566,568)"/>
<path d="M0 0 C4.95 0 9.9 0 15 0 C15.01981934 1.06959961 15.03963867 2.13919922 15.06005859 3.24121094 C15.1362098 7.21475512 15.22491242 11.18793766 15.31738281 15.16113281 C15.35563327 16.87981011 15.39049303 18.59856638 15.421875 20.31738281 C15.46761128 22.7900004 15.52559084 25.26207613 15.5859375 27.734375 C15.59748871 28.50118591 15.60903992 29.26799683 15.62094116 30.05804443 C15.75461827 35.34209548 15.75461827 35.34209548 18 40 C20.7459726 41.3729863 22.9589047 41.12412634 26 41 C27.485 40.505 27.485 40.505 29 40 C31.04041659 35.47746252 31.33232691 31.08384201 31.4140625 26.1953125 C31.43342865 25.4713327 31.4527948 24.74735291 31.4727478 24.00143433 C31.53209886 21.70940602 31.57874878 19.41732626 31.625 17.125 C31.66322087 15.56247919 31.70227494 13.99997852 31.7421875 12.4375 C31.83776308 8.62516535 31.92195606 4.8127322 32 1 C36.62 1 41.24 1 46 1 C46 17.83 46 34.66 46 52 C41.71 52 37.42 52 33 52 C32.505 49.03 32.505 49.03 32 46 C31.2575 46.78375 30.515 47.5675 29.75 48.375 C24.91774804 52.98760414 21.30774982 53.457059 14.7578125 53.30859375 C10.0150259 52.77788533 6.81402409 51.24117961 3.72265625 47.421875 C-0.28233626 41.09370178 -0.14911509 33.93292258 -0.09765625 26.66015625 C-0.0962413 25.89319931 -0.09482635 25.12624237 -0.09336853 24.33604431 C-0.08781766 21.9114881 -0.07527463 19.48702781 -0.0625 17.0625 C-0.05747864 15.40820447 -0.05291685 13.75390747 -0.04882812 12.09960938 C-0.03871968 8.0663405 -0.01913521 4.0332763 0 0 Z " fill="#F9F9F9" transform="translate(906,584)"/>
<path d="M0 0 C5.0720408 2.28404401 7.24071051 5.90141779 9.35775757 10.94154358 C10.51824235 14.66102277 10.36619976 18.3510804 10.29296875 22.21484375 C10.28872391 23.07058487 10.28447906 23.92632599 10.28010559 24.80799866 C10.26342789 27.5181642 10.22579705 30.22756248 10.1875 32.9375 C10.17243902 34.7844944 10.1587531 36.63150056 10.14648438 38.47851562 C10.11356026 42.98596884 10.06185469 47.49285472 10 52 C5.38 52 0.76 52 -4 52 C-4.01981934 51.00145996 -4.03963867 50.00291992 -4.06005859 48.97412109 C-4.13644264 45.25024268 -4.225108 41.52673839 -4.31738281 37.80322266 C-4.35553759 36.19522518 -4.39041348 34.58714627 -4.421875 32.97900391 C-4.4678206 30.66018684 -4.52576381 28.3419238 -4.5859375 26.0234375 C-4.59748871 25.31069672 -4.60903992 24.59795593 -4.62094116 23.86361694 C-4.74647479 19.56588751 -5.43884039 16.00423744 -7 12 C-8.43739513 11.97287934 -9.87493863 11.95354933 -11.3125 11.9375 C-12.11300781 11.92589844 -12.91351562 11.91429687 -13.73828125 11.90234375 C-16.16861334 11.90342145 -16.16861334 11.90342145 -19 13 C-20.24473532 16.73420597 -20.23209785 20.27365238 -20.31640625 24.16796875 C-20.33718735 24.96278152 -20.35796844 25.7575943 -20.37937927 26.57649231 C-20.44472087 29.11340763 -20.50368808 31.65042573 -20.5625 34.1875 C-20.60569986 35.90821372 -20.64931463 37.62891708 -20.69335938 39.34960938 C-20.80038648 43.56630113 -20.90169724 47.7830962 -21 52 C-25.95 52 -30.9 52 -36 52 C-36 35.17 -36 18.34 -36 1 C-31.71 1 -27.42 1 -23 1 C-22.67 2.98 -22.34 4.96 -22 7 C-21.401875 6.21625 -20.80375 5.4325 -20.1875 4.625 C-14.85879724 -1.76944331 -7.64945588 -0.9156658 0 0 Z " fill="#FAFAFA" transform="translate(836,584)"/>
<path d="M0 0 C0.8367627 0.01732178 1.67352539 0.03464355 2.53564453 0.05249023 C9.43069695 0.3171665 15.13498521 1.10990583 20.1640625 6.17578125 C23.08905472 9.86061782 23.92866694 12.87477633 24.5625 17.5625 C22.29328464 17.69739391 20.0217933 17.79443995 17.75 17.875 C15.85314453 17.96201172 15.85314453 17.96201172 13.91796875 18.05078125 C12.81066406 17.88964844 11.70335937 17.72851562 10.5625 17.5625 C8.73828125 15.10546875 8.73828125 15.10546875 7.5625 12.5625 C5.19636544 11.37943272 3.69469264 11.42895392 1.0625 11.4375 C0.2684375 11.43492187 -0.525625 11.43234375 -1.34375 11.4296875 C-3.49668534 11.42972004 -3.49668534 11.42972004 -5.4375 12.5625 C-5.4375 14.5425 -5.4375 16.5225 -5.4375 18.5625 C-1.12152817 20.93102113 2.73030306 22.17235846 7.5625 23.0625 C13.50094372 24.15642384 18.31779536 25.61315124 22.9375 29.625 C25.31376166 33.92054992 25.21256434 37.75836594 24.5625 42.5625 C22.83884733 46.73555384 20.34151679 49.12713362 16.5625 51.5625 C8.06252755 54.71063795 -2.99756081 55.35774294 -11.5 52 C-15.67723665 49.76529684 -19.13035414 46.73184217 -21.4375 42.5625 C-22.09375 39.3359375 -22.09375 39.3359375 -22.4375 36.5625 C-19.99815775 36.42748106 -17.56625896 36.32846103 -15.125 36.25 C-14.43470703 36.20810547 -13.74441406 36.16621094 -13.03320312 36.12304688 C-11.01171875 36.07421875 -11.01171875 36.07421875 -7.4375 36.5625 C-5.58203125 39.01953125 -5.58203125 39.01953125 -4.4375 41.5625 C-2.0978331 42.73233345 -0.60358473 42.7286241 2 42.75 C2.78246094 42.76417969 3.56492187 42.77835938 4.37109375 42.79296875 C6.85455987 42.70336064 6.85455987 42.70336064 9.5625 40.5625 C9.0675 38.0875 9.0675 38.0875 8.5625 35.5625 C7.66789063 35.30855469 6.77328125 35.05460938 5.8515625 34.79296875 C3.98652438 34.26208903 2.12157763 33.73080604 0.25976562 33.1887207 C-2.61009448 32.35456826 -5.47202928 31.55444012 -8.3828125 30.875 C-13.60114072 29.59834478 -17.16357683 28.04628335 -20.4375 23.65625 C-22.34966461 19.65265535 -22.24837742 15.85872774 -21.4375 11.5625 C-17.36444946 2.56784672 -9.28345758 -0.31193162 0 0 Z " fill="#F9F9F9" transform="translate(532.4375,583.4375)"/>
<path d="M0 0 C4.36855472 2.77998937 7.07615627 6.22811309 9 11 C9.495 13.97 9.495 13.97 10 17 C5.05 17 0.1 17 -5 17 C-5.9765625 15.20963542 -6.953125 13.41927083 -7.9296875 11.62890625 C-8.91410024 9.83381685 -8.91410024 9.83381685 -11 9 C-15.81681708 8.33756936 -18.99339784 8.26601926 -23 11.1875 C-25.10420297 14.14653543 -25.75649538 15.42859891 -26 19 C-26.05027344 19.68320312 -26.10054687 20.36640625 -26.15234375 21.0703125 C-26.38286488 26.51061123 -25.74617881 30.26520894 -23 35 C-19.38461291 38.02910811 -16.6373505 38.39466813 -12 38 C-9.73433657 37.56058477 -9.73433657 37.56058477 -8 37 C-7.690625 35.865625 -7.38125 34.73125 -7.0625 33.5625 C-6 30 -6 30 -5 29 C-2.46950598 28.92686433 0.03304837 28.90752473 2.5625 28.9375 C3.62887695 28.94426758 3.62887695 28.94426758 4.71679688 28.95117188 C6.47790013 28.96299136 8.23896036 28.98092737 10 29 C9.10428936 35.83466165 6.54498665 40.45501335 1.6875 45.3125 C-6.24501428 50.29338106 -13.74136108 51.08190837 -23 50 C-29.61559622 48.08449225 -33.90053218 44.74256055 -37.84375 39.16015625 C-42.22520021 30.97454151 -42.4806416 20.33489695 -40.3828125 11.359375 C-37.69145971 5.30978555 -32.2498667 0.36621491 -26.203125 -2.17578125 C-17.57282355 -4.39650516 -7.95016499 -4.12230777 0 0 Z " fill="#F8F8F8" transform="translate(782,587)"/>
<path d="M0 0 C3.19667053 0.93692017 3.19667053 0.93692017 5.19667053 2.06192017 C6.8853034 5.22810679 6.03129263 7.52723866 5.19667053 10.93692017 C3.52852671 13.45437815 1.47168283 15.48305055 -0.68077087 17.59072876 C-1.29390137 18.21437317 -1.90703186 18.83801758 -2.53874207 19.4805603 C-4.56265946 21.53081113 -6.60764947 23.558417 -8.65489197 25.58535767 C-10.07246813 27.00697726 -11.48915274 28.42948637 -12.90498352 29.85284424 C-15.87299622 32.82969455 -18.85156883 35.79544334 -21.83799744 38.7538147 C-25.66172556 42.54335879 -29.45788349 46.35920394 -33.24653053 50.18378258 C-36.16625062 53.12520274 -39.10013481 56.05215881 -42.03847885 58.97496414 C-43.44387996 60.37636795 -44.84485195 61.78222828 -46.24124527 63.19260788 C-48.19650062 65.16313331 -50.17002041 67.11335036 -52.14952087 69.05947876 C-53.00708481 69.93526077 -53.00708481 69.93526077 -53.88197327 70.82873535 C-57.63424701 74.46488243 -60.35403762 75.93717708 -65.80332947 75.93692017 C-68.41216929 73.66254698 -69.56864158 72.069199 -70.27270508 68.67236328 C-69.55304906 64.47832752 -66.77044262 62.18344928 -63.8558197 59.29483032 C-62.90708229 58.3257222 -62.90708229 58.3257222 -61.93917847 57.33703613 C-59.84297857 55.20351272 -57.72862568 53.08915367 -55.61192322 50.97598267 C-54.14843725 49.50151191 -52.68547729 48.02651889 -51.22302246 46.55102539 C-48.15377815 43.46086136 -45.07488162 40.38070654 -41.98960876 37.30654907 C-38.03507884 33.36371443 -34.1109656 29.39207062 -30.19424343 25.41172218 C-27.18062428 22.3575433 -24.14882447 19.32193405 -21.11148262 16.29136276 C-19.65670486 14.83437616 -18.2082775 13.37102028 -16.76637077 11.90129471 C-14.74830798 9.8487978 -12.70649145 7.82328462 -10.65660095 5.80264282 C-9.76862823 4.88330963 -9.76862823 4.88330963 -8.86271667 3.94540405 C-5.66517 0.85099669 -4.63291888 -0.07683893 0 0 Z " fill="#FDFDFD" transform="translate(810.8033294677734,385.0630798339844)"/>
<path d="M0 0 C1.93166016 0.01740234 1.93166016 0.01740234 3.90234375 0.03515625 C5.19269531 0.04417969 6.48304688 0.05320312 7.8125 0.0625 C8.81152344 0.07410156 9.81054688 0.08570313 10.83984375 0.09765625 C8.67429033 7.48157059 6.3369199 14.79832036 3.90234375 22.09765625 C3.52190918 23.23960449 3.14147461 24.38155273 2.74951172 25.55810547 C-1.06856815 36.94544125 -5.06248982 48.26968722 -9.08569336 59.5859375 C-11.50870989 66.40270322 -13.90712487 73.22227663 -16.16015625 80.09765625 C-16.49015625 81.08765625 -16.82015625 82.07765625 -17.16015625 83.09765625 C-21.78015625 83.09765625 -26.40015625 83.09765625 -31.16015625 83.09765625 C-30.43631272 78.75459507 -29.6878514 75.35875059 -28.26171875 71.29296875 C-27.87008545 70.16777832 -27.47845215 69.04258789 -27.07495117 67.88330078 C-26.64931885 66.67528809 -26.22368652 65.46727539 -25.78515625 64.22265625 C-25.33970472 62.94664228 -24.89481028 61.6704337 -24.45043945 60.39404297 C-23.51025127 57.69435886 -22.56800137 54.99540697 -21.62451172 52.296875 C-19.41226747 45.96170268 -17.23150083 39.61569481 -15.0512085 33.26947021 C-14.36995541 31.28753023 -13.68731859 29.30607176 -13.00439453 27.32470703 C-10.34677011 19.60159074 -10.34677011 19.60159074 -7.76025391 11.85449219 C-7.53203445 11.16169159 -7.303815 10.46889099 -7.06867981 9.75509644 C-6.432736 7.81925019 -5.8008466 5.88207342 -5.16918945 3.94482422 C-3.81290611 0.11782775 -3.81290611 0.11782775 0 0 Z " fill="#F7F7F7" transform="translate(887.16015625,563.90234375)"/>
<path d="M0 0 C4.95 0 9.9 0 15 0 C15 17.16 15 34.32 15 52 C10.05 52 5.1 52 0 52 C0 34.84 0 17.68 0 0 Z " fill="#EFEFEF" transform="translate(964,584)"/>
<path d="M0 0 C3.28175318 2.52968474 4.69243777 4.07731331 6 8 C6.14648082 10.26763574 6.2209626 12.54032366 6.25 14.8125 C6.27578125 16.01519531 6.3015625 17.21789062 6.328125 18.45703125 C5.89660753 23.11639251 4.44526644 26.45150024 1.25 29.875 C-2.04033698 31.52016849 -4.37108493 31.44565624 -8 31 C-12.04673388 28.57195967 -13.61184032 26.44088253 -15 22 C-15.30078125 18.40625 -15.30078125 18.40625 -15.3125 14.5 C-15.32925781 13.2109375 -15.34601562 11.921875 -15.36328125 10.59375 C-14.98092612 6.81131218 -14.30480606 4.97951509 -12 2 C-7.99298306 -0.67134463 -4.71123704 -0.82653281 0 0 Z " fill="#050505" transform="translate(710,595)"/>
<path d="M0 0 C-0.02178708 5.00013375 -0.26237902 8.0964143 -3.5 12.0625 C-6.83522752 14.3963517 -9.96686236 14.52377392 -13.94921875 14.46875 C-16.49712645 13.8863711 -17.45090896 13.08512572 -19 11 C-19 8 -19 8 -18 5 C-13.62482233 0.91650084 -5.85684195 0 0 0 Z " fill="#0A0A0A" transform="translate(655,613)"/>
<path d="M0 0 C4.95 0 9.9 0 15 0 C15 3.63 15 7.26 15 11 C10.05 11 5.1 11 0 11 C0 7.37 0 3.74 0 0 Z " fill="#FAFAFA" transform="translate(964,567)"/>
</svg>
