<?xml version="1.0" encoding="UTF-8"?>
<svg version="1.1" xmlns="http://www.w3.org/2000/svg" width="866" height="650">
<path d="M0 0 C285.78 0 571.56 0 866 0 C866 214.5 866 429 866 650 C580.22 650 294.44 650 0 650 C0 435.5 0 221 0 0 Z " fill="#000000" transform="translate(0,0)"/>
<path d="M0 0 C6.13914793 2.73514567 11.0546691 7.45360168 14.06152344 13.40966797 C16.56702771 20.37303893 16.09653029 27.95121199 16.19140625 35.26171875 C16.22457569 37.0772269 16.25815673 38.89272757 16.292099 40.70822144 C16.77146458 69.18504667 16.62007469 97.67622048 16.57984197 126.15603518 C16.5684214 134.37683686 16.56310522 142.59763965 16.55813611 150.81844735 C16.54782996 167.65631794 16.5303734 184.4941725 16.5078125 201.33203125 C17.71818554 201.32926587 18.92855858 201.32650049 20.17560959 201.32365131 C48.94113016 201.25860449 77.70664945 201.20917308 106.4722266 201.17883526 C110.01680354 201.17508338 113.56138032 201.17120039 117.10595703 201.16723633 C117.81158501 201.1664494 118.51721298 201.16566247 119.24422362 201.16485169 C130.65279349 201.15181634 142.06131777 201.12817287 153.46986064 201.10057286 C165.18588431 201.07246648 176.90188419 201.05584395 188.61794019 201.04976577 C195.19454495 201.04585988 201.77104647 201.03670013 208.3476181 201.01484108 C214.54290977 200.99441694 220.73805608 200.98820948 226.93337822 200.99270821 C229.20205158 200.99188566 231.47073001 200.98595555 233.73937416 200.97441483 C252.84177512 200.88203982 268.73242711 202.18166398 283.1875 215.95703125 C292.69432238 225.68792015 298.47239379 237.1142239 298.7578125 250.95703125 C298.52623414 266.42646572 291.39815457 278.71108624 281.42578125 289.9921875 C278.52452709 293.27475485 275.81556857 296.68250075 273.1328125 300.14453125 C269.15330603 305.25930228 265.10670776 310.31242209 261.0078125 315.33203125 C256.95789826 320.29427575 252.94975891 325.28357357 249.0078125 330.33203125 C244.5258114 336.07213793 239.94824693 341.72896371 235.34375 347.37109375 C231.85251071 351.65654862 228.40967178 355.97536231 225.0078125 360.33203125 C219.41522485 367.4930085 213.67650462 374.53184129 207.93701172 381.57519531 C203.39862396 387.1539856 198.93120474 392.78734521 194.49658203 398.44873047 C190.00318904 404.18507503 185.45284026 409.86306897 180.8203125 415.48828125 C178.17655005 418.73939453 175.58880874 422.03104711 173.0078125 425.33203125 C169.02836358 430.42004584 164.98257678 435.44481781 160.87890625 440.43359375 C154.6478244 448.05050106 148.51606081 455.74957813 142.46044922 463.5065918 C137.31341909 470.09891707 132.03601863 476.57118694 126.7019043 483.01293945 C122.59663105 487.98117967 118.58254482 493.01047208 114.62109375 498.09375 C111.13927316 502.55292373 107.58535726 506.94939468 104.0078125 511.33203125 C99.87341043 516.39745116 95.78406059 521.49269597 91.7578125 526.64453125 C87.88783546 531.59463004 83.9631773 536.49149976 79.9609375 541.3359375 C78.05556165 543.66304463 76.17426105 546.0037343 74.3046875 548.359375 C73.45656494 549.42115967 73.45656494 549.42115967 72.59130859 550.50439453 C71.48477724 551.89048396 70.38320279 553.28055108 69.28759766 554.67529297 C64.51026244 560.63618213 59.30605969 566.86066386 51.5078125 568.33203125 C43.03958704 569.22924527 36.54639797 568.30044452 29.5078125 563.33203125 C23.99353811 558.52890007 20.97816334 552.69707651 20.19262695 545.40698242 C20.01025415 541.63178259 19.93225142 537.8606686 19.8828125 534.08203125 C19.8526125 532.52968463 19.82139627 530.97735754 19.78930664 529.42504883 C19.71844863 525.82009015 19.65860522 522.2151186 19.60498047 518.60986328 C19.52047629 512.97019655 19.41507726 507.33105575 19.30721664 501.69179344 C18.69843887 469.52421452 18.44137965 437.36470421 18.47777176 405.19150162 C18.48237067 400.66856227 18.48427087 396.14562171 18.4864502 391.62268066 C18.49104452 382.85912772 18.49843849 374.09558038 18.5078125 365.33203125 C16.65994786 365.33756201 16.65994786 365.33756201 14.77475262 365.3432045 C-14.49560779 365.42991366 -43.76593893 365.49583216 -73.03639602 365.53629257 C-76.64234692 365.54129515 -80.24829755 365.54647246 -83.85424805 365.55175781 C-84.93102716 365.55333168 -84.93102716 365.55333168 -86.0295594 365.55493733 C-97.63928519 365.57232286 -109.24893141 365.60385027 -120.85861007 365.64064243 C-132.77915904 365.67810353 -144.69966645 365.700278 -156.62027186 365.70838523 C-163.31257691 365.71337196 -170.00469063 365.72582384 -176.69693947 365.75495148 C-182.99977829 365.7821612 -189.30236315 365.79046486 -195.60525513 365.78446198 C-197.91466846 365.78555971 -200.22409056 365.79348014 -202.53345299 365.80885315 C-224.82625147 365.94993595 -224.82625147 365.94993595 -233.4921875 361.33203125 C-234.48734375 360.85121094 -235.4825 360.37039063 -236.5078125 359.875 C-248.18016593 352.79404433 -255.88472911 343.06820748 -260.578125 330.19921875 C-263.64720607 317.214645 -262.51334457 303.42047552 -256.1171875 291.70703125 C-251.74941434 284.79229359 -246.34355433 278.62001713 -241.13525391 272.33398438 C-238.70423867 269.37197473 -236.34578209 266.35566521 -233.9921875 263.33203125 C-229.51115066 257.59118946 -224.93260273 251.93507526 -220.328125 246.29296875 C-216.83688667 242.00751507 -213.39399862 237.68873672 -209.9921875 233.33203125 C-205.51307482 227.59562379 -200.93874072 221.94221084 -196.33691406 216.30395508 C-192.2906067 211.33754005 -188.31876542 206.31755098 -184.375 201.26953125 C-180.91138234 196.84379758 -177.36129718 192.49486836 -173.7890625 188.15625 C-171.23446559 185.01513849 -168.73469141 181.83493625 -166.2421875 178.64453125 C-161.67546846 172.80067892 -157.01678003 167.03727904 -152.3269043 161.29199219 C-148.85392287 157.02972015 -145.43424499 152.73113157 -142.0546875 148.39453125 C-137.372166 142.38988603 -132.54230885 136.51543002 -127.68603516 130.65087891 C-123.58089345 125.68267976 -119.56684933 120.65349997 -115.60546875 115.5703125 C-112.12364773 111.11113821 -108.56970678 106.71468894 -104.9921875 102.33203125 C-100.94236683 97.36970881 -96.93413556 92.38049105 -92.9921875 87.33203125 C-88.51181335 81.59400821 -83.9369954 75.9383163 -79.33251953 70.29956055 C-75.79107295 65.95448205 -72.31052524 61.56761517 -68.8671875 57.14453125 C-65.32258912 52.59433666 -61.68188936 48.14995364 -57.9296875 43.76953125 C-53.45175203 38.53763347 -49.21396559 33.16095699 -45.046875 27.6796875 C-42.27484399 24.0339349 -39.44962395 20.4309531 -36.6171875 16.83203125 C-35.93849609 15.96880249 -35.93849609 15.96880249 -35.24609375 15.08813477 C-33.99683484 13.50115642 -32.74458487 11.91653399 -31.4921875 10.33203125 C-30.81542969 9.44128906 -30.13867188 8.55054688 -29.44140625 7.6328125 C-21.8665323 -1.30827118 -11.07754102 -2.9690588 0 0 Z " fill="#31B278" transform="translate(414.4921875,39.66796875)"/>
<path d="M0 0 C6.33277156 2.8214099 11.33653271 7.62567971 14.07296085 13.94845295 C15.63539737 18.24203693 15.97478286 22.10235269 16.00840759 26.64115906 C16.02552784 27.43238226 16.04264808 28.22360546 16.06028712 29.03880513 C16.11285398 31.6530258 16.1445484 34.26703301 16.17553711 36.8815918 C16.20774174 38.75561704 16.24089208 40.62962625 16.27492428 42.50361919 C16.37636393 48.44620426 16.44566266 54.38892089 16.5078125 60.33203125 C16.51809683 61.27855072 16.52838117 62.2250702 16.53897715 63.20027208 C16.68519621 76.9122459 16.75708707 90.62430366 16.81113553 104.33690858 C16.83376109 109.87457663 16.8608169 115.41222365 16.88719177 120.94987488 C16.93104437 130.28924511 16.97181904 139.62862456 17.01049805 148.96801758 C17.04928088 158.32773295 17.09079135 167.68743017 17.13549805 177.04711914 C17.4351184 239.80910921 17.57389952 302.5693379 17.5078125 365.33203125 C-12.879499 365.4233642 -43.26679627 365.49411251 -73.65421375 365.53629257 C-77.24514337 365.54129514 -80.83607273 365.54647246 -84.42700195 365.55175781 C-85.14186408 365.55280705 -85.85672621 365.5538563 -86.59325083 365.55493733 C-98.15447785 365.57232267 -109.71562497 365.60384997 -121.27680466 365.64064243 C-133.14763306 365.67810407 -145.01841974 365.70027812 -156.88930482 365.70838523 C-163.55364635 365.71337186 -170.21784246 365.7258232 -176.88213539 365.75495148 C-183.15870966 365.78216206 -189.43502892 365.79046468 -195.71165657 365.78446198 C-198.01139462 365.78555967 -200.31114147 365.79347959 -202.6108284 365.80885315 C-224.81134625 365.94994758 -224.81134625 365.94994758 -233.4921875 361.33203125 C-234.48734375 360.85121094 -235.4825 360.37039063 -236.5078125 359.875 C-248.18016593 352.79404433 -255.88472911 343.06820748 -260.578125 330.19921875 C-263.64720607 317.214645 -262.51334457 303.42047552 -256.1171875 291.70703125 C-251.74941434 284.79229359 -246.34355433 278.62001713 -241.13525391 272.33398438 C-238.70423867 269.37197473 -236.34578209 266.35566521 -233.9921875 263.33203125 C-229.51115066 257.59118946 -224.93260273 251.93507526 -220.328125 246.29296875 C-216.83688667 242.00751507 -213.39399862 237.68873672 -209.9921875 233.33203125 C-205.51307482 227.59562379 -200.93874072 221.94221084 -196.33691406 216.30395508 C-192.2906067 211.33754005 -188.31876542 206.31755098 -184.375 201.26953125 C-180.91138234 196.84379758 -177.36129718 192.49486836 -173.7890625 188.15625 C-171.23446559 185.01513849 -168.73469141 181.83493625 -166.2421875 178.64453125 C-161.67546846 172.80067892 -157.01678003 167.03727904 -152.3269043 161.29199219 C-148.85392287 157.02972015 -145.43424499 152.73113157 -142.0546875 148.39453125 C-137.372166 142.38988603 -132.54230885 136.51543002 -127.68603516 130.65087891 C-123.58089345 125.68267976 -119.56684933 120.65349997 -115.60546875 115.5703125 C-112.12364773 111.11113821 -108.56970678 106.71468894 -104.9921875 102.33203125 C-100.94236683 97.36970881 -96.93413556 92.38049105 -92.9921875 87.33203125 C-88.51181335 81.59400821 -83.9369954 75.9383163 -79.33251953 70.29956055 C-75.79107295 65.95448205 -72.31052524 61.56761517 -68.8671875 57.14453125 C-65.32258912 52.59433666 -61.68188936 48.14995364 -57.9296875 43.76953125 C-53.45175203 38.53763347 -49.21396559 33.16095699 -45.046875 27.6796875 C-42.27484399 24.0339349 -39.44962395 20.4309531 -36.6171875 16.83203125 C-35.93849609 15.96880249 -35.93849609 15.96880249 -35.24609375 15.08813477 C-33.99683484 13.50115642 -32.74458487 11.91653399 -31.4921875 10.33203125 C-30.81542969 9.44128906 -30.13867188 8.55054688 -29.44140625 7.6328125 C-21.8665323 -1.30827118 -11.07754102 -2.9690588 0 0 Z " fill="#3ECE8D" transform="translate(414.4921875,39.66796875)"/>
<path d="M0 0 C78.21 0 156.42 0 237 0 C237 0.33 237 0.66 237 1 C235.95944851 1.00634791 235.95944851 1.00634791 234.89787579 1.01282406 C217.93372698 1.11661861 200.96961723 1.2253239 184.00553417 1.33933926 C175.8014728 1.39436307 167.59740711 1.44779039 159.39331055 1.49731445 C152.23359282 1.54053833 145.07390312 1.58690519 137.91422921 1.63687855 C134.13146517 1.66317631 130.34870557 1.68801433 126.56590843 1.70907402 C106.49631917 1.80597533 106.49631917 1.80597533 86.4472332 2.65127373 C77.99374102 3.15990937 69.54788199 3.12539844 61.08203125 3.09765625 C59.36040794 3.09578361 57.63878408 3.09436373 55.91716003 3.09336853 C51.45726972 3.08960981 46.99741369 3.07983916 42.53753662 3.06866455 C37.14816242 3.05647276 31.75877654 3.05201645 26.3693924 3.04621124 C18.24623799 3.03662152 10.12315832 3.01741921 2 3 C2 14.22 2 25.44 2 37 C1.34 36.34 0.68 35.68 0 35 C0 23.45 0 11.9 0 0 Z " fill="#2B7453" transform="translate(431,241)"/>
<path d="M0 0 C0.33 0 0.66 0 1 0 C1.06058594 0.83144531 1.12117188 1.66289062 1.18359375 2.51953125 C1.26738281 3.60621094 1.35117187 4.69289063 1.4375 5.8125 C1.51871094 6.89144531 1.59992188 7.97039062 1.68359375 9.08203125 C1.90212461 12.05989905 1.90212461 12.05989905 3 15 C3.09764138 17.07239221 3.13077263 19.14796611 3.1328125 21.22265625 C3.13413177 21.88349213 3.13545105 22.544328 3.1368103 23.22518921 C3.13878051 25.50433501 3.13221604 27.7833657 3.125 30.0625 C3.12411377 30.8591507 3.12322754 31.65580139 3.12231445 32.47659302 C3.08217601 64.31834419 2.47457072 96.16237035 2 128 C1.67 128 1.34 128 1 128 C0.82422734 117.91680979 0.65828441 107.83347833 0.5 97.75 C0.48812275 96.99370804 0.4762455 96.23741608 0.46400833 95.45820618 C-0.03196925 63.63669078 -0.11765139 31.82509987 0 0 Z " fill="#368D68" transform="translate(433,424)"/>
<path d="M0 0 C0.495 1.485 0.495 1.485 1 3 C-0.46234052 5.20585121 -1.9403012 7.16091305 -3.625 9.1875 C-4.3684668 10.10692383 -4.3684668 10.10692383 -5.12695312 11.04492188 C-6.7418243 13.03786999 -8.37056965 15.01894566 -10 17 C-11.62511429 18.99596869 -13.24715819 20.99440585 -14.86914062 22.99291992 C-15.95709828 24.33185703 -17.04694668 25.66926 -18.13867188 27.00512695 C-20.85064152 30.32745178 -23.53419856 33.66687151 -26.1640625 37.0546875 C-26.66357422 37.69792969 -27.16308594 38.34117187 -27.67773438 39.00390625 C-28.61799732 40.21952284 -29.55442472 41.43811936 -30.48632812 42.66015625 C-32.53387573 45.30844363 -34.18390013 47.12260009 -37 49 C-37.66 48.67 -38.32 48.34 -39 48 C-39 47.34 -39 46.68 -39 46 C-37.68 45.34 -36.36 44.68 -35 44 C-35 43.34 -35 42.68 -35 42 C-33.515 41.505 -33.515 41.505 -32 41 C-30.13805673 39.0177828 -30.13805673 39.0177828 -28.375 36.625 C-27.76398437 35.83351563 -27.15296875 35.04203125 -26.5234375 34.2265625 C-24.84457509 31.99159382 -24.84457509 31.99159382 -24 29 C-23.01 29 -22.02 29 -21 29 C-20.67 27.68 -20.34 26.36 -20 25 C-19.34 25 -18.68 25 -18 25 C-17.773125 24.113125 -17.54625 23.22625 -17.3125 22.3125 C-15.81610154 18.5358753 -14.07508263 16.61382024 -11 14 C-10.34 14 -9.68 14 -9 14 C-8.74476563 13.27425781 -8.48953125 12.54851562 -8.2265625 11.80078125 C-6.93198926 8.8447016 -5.39544896 6.69435334 -3.375 4.1875 C-2.74335937 3.39730469 -2.11171875 2.60710937 -1.4609375 1.79296875 C-0.97882812 1.20128906 -0.49671875 0.60960937 0 0 Z " fill="#48BE8B" transform="translate(692,330)"/>
<path d="M0 0 C7.79204064 -0.10187788 15.58390788 -0.17166589 23.37646484 -0.21972656 C26.0243166 -0.2397738 28.67212446 -0.26701884 31.31982422 -0.30175781 C35.13780588 -0.35057744 38.95519936 -0.37303881 42.7734375 -0.390625 C43.94675629 -0.41127014 45.12007507 -0.43191528 46.32894897 -0.45318604 C53.72514656 -0.45518046 59.3749481 0.68742134 66 4 C66.99 4.495 66.99 4.495 68 5 C68 5.66 68 6.32 68 7 C63.87488652 6.65624054 61.06207175 6.15309987 57.5234375 3.99121094 C52.0621674 1.18850173 46.65359586 1.39725007 40.625 1.390625 C39.4599292 1.37408875 38.2948584 1.35755249 37.09448242 1.34051514 C33.39626723 1.29217448 29.69846288 1.27069407 26 1.25 C23.4830524 1.22182884 20.96612383 1.19189982 18.44921875 1.16015625 C12.2995534 1.08641901 6.15000294 1.03469488 0 1 C0 0.67 0 0.34 0 0 Z " fill="#4AB286" transform="translate(618,242)"/>
<path d="M0 0 C0.66 0.33 1.32 0.66 2 1 C1.11612978 5.45927954 -1.37908009 8.35449794 -4.1875 11.8125 C-4.68419189 12.43398926 -5.18088379 13.05547852 -5.69262695 13.69580078 C-9.04375991 17.87171855 -12.4603936 21.98206841 -16 26 C-17.32 25.67 -18.64 25.34 -20 25 C-17 23 -17 23 -15 23 C-13.79371992 20.66785852 -12.8345262 18.50357861 -12 16 C-11.01 15.34 -10.02 14.68 -9 14 C-8.87625 13.195625 -8.7525 12.39125 -8.625 11.5625 C-8 9 -8 9 -5.5 7.375 C-4.675 6.92125 -3.85 6.4675 -3 6 C-2.67 5.01 -2.34 4.02 -2 3 C-1.34 3 -0.68 3 0 3 C0 2.01 0 1.02 0 0 Z " fill="#44BA87" transform="translate(596,448)"/>
<path d="M0 0 C2.41981085 2.41981085 2.2963819 3.05467208 2.3125 6.375 C2.07951939 16.48053402 -1.10561864 25.25588784 -6 34 C-6.66 33.34 -7.32 32.68 -8 32 C-7.401875 30.865625 -6.80375 29.73125 -6.1875 28.5625 C-1.51982407 19.06162771 -0.4021605 10.5255111 0 0 Z " fill="#47AA80" transform="translate(711,284)"/>
<path d="M0 0 C0.66 0.33 1.32 0.66 2 1 C-0.85523826 7.13876225 -3.70865911 12.01989116 -10 15 C-10.66 14.67 -11.32 14.34 -12 14 C-8.04 9.38 -4.08 4.76 0 0 Z " fill="#48C18A" transform="translate(305,148)"/>
<path d="M0 0 C0.66 0 1.32 0 2 0 C0.37387593 3.67189306 -1.87957994 6.61621667 -4.375 9.75 C-5.14585937 10.73484375 -5.91671875 11.7196875 -6.7109375 12.734375 C-9 15 -9 15 -13 15 C-12 13 -12 13 -9 12 C-8.67 11.01 -8.34 10.02 -8 9 C-6.3540349 7.31288577 -4.68762851 5.6454378 -3 4 C-2.67 3.34 -2.34 2.68 -2 2 C-1.34 2 -0.68 2 0 2 C0 1.34 0 0.68 0 0 Z " fill="#46B384" transform="translate(557,499)"/>
<path d="M0 0 C2.79496066 2.79496066 2.66104876 5.13595584 3 9 C2.67 9.99 2.34 10.98 2 12 C1.92948886 14.73865287 1.90642235 17.45027588 1.9375 20.1875 C1.94201172 20.93708984 1.94652344 21.68667969 1.95117188 22.45898438 C1.96293646 24.30602383 1.98087135 26.15302213 2 28 C1.67 28 1.34 28 1 28 C-0.20514375 18.66013591 -0.09213655 9.39792784 0 0 Z " fill="#309B6E" transform="translate(433,406)"/>
<path d="M0 0 C0.66 0.33 1.32 0.66 2 1 C0.57139081 5.49108752 -1.93077292 8.46169316 -5.125 11.8125 C-5.59292969 12.31458984 -6.06085938 12.81667969 -6.54296875 13.33398438 C-7.68901825 14.56189455 -8.84365311 15.78178215 -10 17 C-11.04449911 13.86650268 -10.93423645 13.01031744 -10 10 C-9.360625 9.87625 -8.72125 9.7525 -8.0625 9.625 C-7.381875 9.41875 -6.70125 9.2125 -6 9 C-5.67 8.34 -5.34 7.68 -5 7 C-4.34 7 -3.68 7 -3 7 C-3 6.34 -3 5.68 -3 5 C-2.34 5 -1.68 5 -1 5 C-0.67 3.35 -0.34 1.7 0 0 Z " fill="#3DAC7D" transform="translate(486,586)"/>
<path d="M0 0 C0.66 0.33 1.32 0.66 2 1 C0.44864132 4.44835686 -1.59152983 7.22991749 -3.9375 10.1875 C-4.62714844 11.06792969 -5.31679688 11.94835937 -6.02734375 12.85546875 C-8 15 -8 15 -11 16 C-9.23556253 12.34509381 -7.43574417 9.42485056 -4.5 6.5625 C-2.34910498 4.35783261 -1.14251917 2.80436523 0 0 Z " fill="#45B685" transform="translate(572,479)"/>
<path d="M0 0 C6.95578275 3.40389369 13.99705008 8.57862759 17.26171875 15.78515625 C17.50535156 16.51605469 17.74898437 17.24695313 18 18 C17.236875 17.195625 16.47375 16.39125 15.6875 15.5625 C13.20569102 12.83200976 13.20569102 12.83200976 10 12 C9.401875 11.071875 8.80375 10.14375 8.1875 9.1875 C5.8197072 5.73728764 3.48891025 4.22021561 0 2 C0 1.34 0 0.68 0 0 Z " fill="#4BBB8C" transform="translate(687,248)"/>
<path d="M0 0 C0.33 1.32 0.66 2.64 1 4 C-0.625 6.4375 -0.625 6.4375 -3 9 C-4.2684375 10.3921875 -4.2684375 10.3921875 -5.5625 11.8125 C-8 14 -8 14 -11 14 C-7.37 9.38 -3.74 4.76 0 0 Z " fill="#48B384" transform="translate(335,110)"/>
<path d="M0 0 C2 2 2 2 3 5 C3.66 5.33 4.32 5.66 5 6 C5.33 6.99 5.66 7.98 6 9 C7.62332967 10.38576923 9.28724465 11.72641268 11 13 C10.01 13.495 10.01 13.495 9 14 C0.18451025 7.07061503 0.18451025 7.07061503 -1 1 C-0.67 0.67 -0.34 0.34 0 0 Z " fill="#3DA277" transform="translate(438,591)"/>
<path d="M0 0 C0.66 0.99 1.32 1.98 2 3 C-0.77611933 6.59867321 -3.61248087 9.95991873 -7 13 C-7.99 13 -8.98 13 -10 13 C-9.16855469 11.96939453 -9.16855469 11.96939453 -8.3203125 10.91796875 C-7.59585938 10.01691406 -6.87140625 9.11585938 -6.125 8.1875 C-5.40570313 7.29417969 -4.68640625 6.40085938 -3.9453125 5.48046875 C-1.92059294 2.96429047 -1.92059294 2.96429047 0 0 Z " fill="#48B687" transform="translate(245,222)"/>
<path d="M0 0 C0.66 0 1.32 0 2 0 C0.65686815 3.78091617 -1.02964684 6.65651916 -3.5 9.8125 C-4.41265625 10.99779297 -4.41265625 10.99779297 -5.34375 12.20703125 C-5.8903125 12.79871094 -6.436875 13.39039063 -7 14 C-7.66 14 -8.32 14 -9 14 C-7.65686815 10.21908383 -5.97035316 7.34348084 -3.5 4.1875 C-2.8915625 3.39730469 -2.283125 2.60710937 -1.65625 1.79296875 C-0.83640625 0.90544922 -0.83640625 0.90544922 0 0 Z " fill="#4ABE8D" transform="translate(651,381)"/>
<path d="M0 0 C4.1314059 3.72636611 5.84377958 8.50047322 6.1875 14 C6.125625 14.66 6.06375 15.32 6 16 C5.34 15.67 4.68 15.34 4 15 C3.1484375 12.27734375 3.1484375 12.27734375 2.375 8.9375 C1.98441406 7.28041016 1.98441406 7.28041016 1.5859375 5.58984375 C1.39257812 4.73519531 1.19921875 3.88054687 1 3 C0.34 3 -0.32 3 -1 3 C-0.67 2.01 -0.34 1.02 0 0 Z " fill="#47B586" transform="translate(705,266)"/>
<path d="M0 0 C0.33 0.66 0.66 1.32 1 2 C-1.39831431 6.88887148 -4.00175912 10.33494586 -8 14 C-8.66 13.67 -9.32 13.34 -10 13 C-5.05 6.565 -5.05 6.565 0 0 Z " fill="#4AAB81" transform="translate(382,51)"/>
<path d="M0 0 C0.71484375 1.734375 0.71484375 1.734375 1 4 C-0.43359375 6.140625 -0.43359375 6.140625 -2.4375 8.25 C-3.09621094 8.95640625 -3.75492188 9.6628125 -4.43359375 10.390625 C-4.95050781 10.92171875 -5.46742188 11.4528125 -6 12 C-7 10 -7 10 -6.3125 6.9375 C-5.879375 5.968125 -5.44625 4.99875 -5 4 C-2.9375 3.3125 -2.9375 3.3125 -1 3 C-0.67 2.01 -0.34 1.02 0 0 Z " fill="#47BE8A" transform="translate(613,428)"/>
<path d="M0 0 C5.26053037 -0.31563182 8.44573816 0.33409063 13 3 C13 3.66 13 4.32 13 5 C8.02693484 4.50269348 4.36200187 3.44697666 0 1 C0 0.67 0 0.34 0 0 Z " fill="#47BD8B" transform="translate(673,244)"/>
<path d="M0 0 C0 3.94354501 -1.37303048 5.14145968 -3.8125 8.1875 C-4.52019531 9.08855469 -5.22789062 9.98960937 -5.95703125 10.91796875 C-6.63121094 11.60503906 -7.30539062 12.29210937 -8 13 C-8.99 13 -9.98 13 -11 13 C-7.37 8.71 -3.74 4.42 0 0 Z " fill="#021C0B" transform="translate(506,566)"/>
<path d="M0 0 C0.33 0.99 0.66 1.98 1 3 C-0.21484375 5.04296875 -0.21484375 5.04296875 -1.9375 7.1875 C-2.50339844 7.90292969 -3.06929687 8.61835938 -3.65234375 9.35546875 C-4.09707031 9.89816406 -4.54179687 10.44085938 -5 11 C-5.99 10.67 -6.98 10.34 -8 10 C-5.36 6.7 -2.72 3.4 0 0 Z " fill="#45B686" transform="translate(169,317)"/>
<path d="M0 0 C0.33 0.66 0.66 1.32 1 2 C-0.3125 4.625 -0.3125 4.625 -2 7 C-2.66 7 -3.32 7 -4 7 C-4.66 8.32 -5.32 9.64 -6 11 C-6.66 10.67 -7.32 10.34 -8 10 C-5.36 6.7 -2.72 3.4 0 0 Z " fill="#48B485" transform="translate(215,260)"/>
<path d="M0 0 C0.66 0 1.32 0 2 0 C2 0.99 2 1.98 2 3 C1.34 3 0.68 3 0 3 C-0.66 4.65 -1.32 6.3 -2 8 C-3.32 8 -4.64 8 -6 8 C-5.04956626 6.66102417 -4.08940853 5.32894573 -3.125 4 C-2.59132813 3.2575 -2.05765625 2.515 -1.5078125 1.75 C-1.01023437 1.1725 -0.51265625 0.595 0 0 Z " fill="#48B788" transform="translate(319,130)"/>
<path d="M0 0 C0.33 0.99 0.66 1.98 1 3 C-0.21484375 4.82421875 -0.21484375 4.82421875 -1.9375 6.6875 C-2.50339844 7.31011719 -3.06929687 7.93273437 -3.65234375 8.57421875 C-4.09707031 9.04472656 -4.54179688 9.51523437 -5 10 C-6 7 -6 7 -5 4 C-3.37667033 2.61423077 -1.71275535 1.27358732 0 0 Z " fill="#48BA88" transform="translate(630,408)"/>
<path d="M0 0 C0.66 0 1.32 0 2 0 C1.49477778 4.37859255 -1.17827222 6.81651224 -4 10 C-4.66 9.67 -5.32 9.34 -6 9 C-4.625 6.5 -4.625 6.5 -3 4 C-2.34 4 -1.68 4 -1 4 C-0.67 2.68 -0.34 1.36 0 0 Z " fill="#45B07F" transform="translate(536,524)"/>
<path d="M0 0 C1.65 0 3.3 0 5 0 C3.73058503 3.91402949 2.48832306 5.79072873 -1 8 C-1 7.01 -1 6.02 -1 5 C-0.34 5 0.32 5 1 5 C0.67 3.35 0.34 1.7 0 0 Z " fill="#41B684" transform="translate(540,516)"/>
<path d="M0 0 C1.65 0 3.3 0 5 0 C4.1875 2.4375 4.1875 2.4375 3 5 C2.01 5.33 1.02 5.66 0 6 C0 4.02 0 2.04 0 0 Z " fill="#45C391" transform="translate(636,396)"/>
<path d="M0 0 C0.33 0.99 0.66 1.98 1 3 C-0.43359375 5.04296875 -0.43359375 5.04296875 -2.4375 7.1875 C-3.09621094 7.90292969 -3.75492188 8.61835938 -4.43359375 9.35546875 C-4.95050781 9.89816406 -5.46742188 10.44085938 -6 11 C-6.66 10.67 -7.32 10.34 -8 10 C-5.36 6.7 -2.72 3.4 0 0 Z " fill="#49B284" transform="translate(178,306)"/>
<path d="M0 0 C0.66 0.66 1.32 1.32 2 2 C-0.64 4.97 -3.28 7.94 -6 11 C-6.66 10.67 -7.32 10.34 -8 10 C-5.36 6.7 -2.72 3.4 0 0 Z " fill="#04220F" transform="translate(608,438)"/>
<path d="M0 0 C0.66 0 1.32 0 2 0 C0.33248852 3.94139078 -2.22710649 6.7892812 -5 10 C-5.33 9.34 -5.66 8.68 -6 8 C-5.04956626 6.66102417 -4.08940853 5.32894573 -3.125 4 C-2.59132813 3.2575 -2.05765625 2.515 -1.5078125 1.75 C-1.01023437 1.1725 -0.51265625 0.595 0 0 Z " fill="#4BBD8C" transform="translate(701,319)"/>
<path d="M0 0 C2.375 0.5625 2.375 0.5625 5 2 C6.3125 5.625 6.3125 5.625 7 9 C4.03595495 6.19195732 1.55500981 3.81684226 0 0 Z " fill="#4AB98B" transform="translate(160,381)"/>
<path d="M0 0 C0.66 0.33 1.32 0.66 2 1 C1.34 3.64 0.68 6.28 0 9 C-0.66 9 -1.32 9 -2 9 C-1.125 1.125 -1.125 1.125 0 0 Z " fill="#47BF8D" transform="translate(710,299)"/>
<path d="M0 0 C0.66 0.99 1.32 1.98 2 3 C-0.97 5.475 -0.97 5.475 -4 8 C-4.66 7.67 -5.32 7.34 -6 7 C-4.02 4.69 -2.04 2.38 0 0 Z " fill="#021D0D" transform="translate(513,557)"/>
<path d="M0 0 C0.66 0.33 1.32 0.66 2 1 C0.35 2.98 -1.3 4.96 -3 7 C-4.32 6.67 -5.64 6.34 -7 6 C-4 4 -4 4 -2 4 C-1.34 2.68 -0.68 1.36 0 0 Z " fill="#46B384" transform="translate(583,467)"/>
<path d="M0 0 C0.33 1.32 0.66 2.64 1 4 C-0.65 5.32 -2.3 6.64 -4 8 C-4.66 7.67 -5.32 7.34 -6 7 C-4.02 4.69 -2.04 2.38 0 0 Z " fill="#43AF81" transform="translate(299,155)"/>
<path d="M0 0 C0.33 0.66 0.66 1.32 1 2 C0.06553465 4.03144641 -0.93224776 6.03533587 -2 8 C-2.99 8 -3.98 8 -5 8 C-3.62845496 5.04590299 -2.01136276 2.55991624 0 0 Z " fill="#44B081" transform="translate(225,247)"/>
<path d="M0 0 C0.33 0.66 0.66 1.32 1 2 C-0.1875 4.5625 -0.1875 4.5625 -2 7 C-3.32 7.33 -4.64 7.66 -6 8 C-4.02 5.36 -2.04 2.72 0 0 Z " fill="#4AB486" transform="translate(279,180)"/>
<path d="M0 0 C1.32 0.66 2.64 1.32 4 2 C2.35 3.65 0.7 5.3 -1 7 C-0.67 4.69 -0.34 2.38 0 0 Z " fill="#41B684" transform="translate(476,596)"/>
<path d="M0 0 C1.65 0 3.3 0 5 0 C4.34 1.65 3.68 3.3 3 5 C2.34 5 1.68 5 1 5 C0.67 3.35 0.34 1.7 0 0 Z " fill="#3FB986" transform="translate(524,536)"/>
</svg>
