<?xml version="1.0" encoding="UTF-8"?>
<svg version="1.1" xmlns="http://www.w3.org/2000/svg" width="724" height="366">
<path d="M0 0 C238.92 0 477.84 0 724 0 C724 120.78 724 241.56 724 366 C485.08 366 246.16 366 0 366 C0 245.22 0 124.44 0 0 Z " fill="#FEFEFE" transform="translate(0,0)"/>
<path d="M0 0 C7.61674088 0.4391049 14.47620697 2.0711568 21.75 4.3125 C23.74464451 4.91324923 25.7394378 5.51350468 27.734375 6.11328125 C28.74886719 6.42072266 29.76335938 6.72816406 30.80859375 7.04492188 C36.52231715 8.75484277 42.26319651 10.36959441 48 12 C50.23979058 12.64250714 52.47937641 13.28572849 54.71875 13.9296875 C65.50255926 17.02470524 76.28745814 20.09816096 87.125 23 C96.17117176 25.42789402 105.10220824 28.17138662 114.04077148 30.96655273 C122.78770535 33.67942606 131.59531671 36.08648845 140.44897461 38.42333984 C148.58279309 40.58326111 156.63081144 42.96169991 164.67089844 45.44555664 C171.76473151 47.63521591 178.88434133 49.71172645 186.02783203 51.73291016 C190.60324654 53.02832279 195.1730575 54.33927808 199.734375 55.68359375 C210.22831019 58.77631503 220.73722346 61.75908836 231.3125 64.5625 C239.53651355 66.74418408 247.65977885 69.09617289 255.74829102 71.73291016 C262.35778444 73.86002275 269.0381736 75.6632108 275.75 77.4375 C284.54933947 79.76482382 293.29388361 82.21893173 302 84.875 C302.97936523 85.1733374 303.95873047 85.4716748 304.96777344 85.77905273 C311.71936418 87.85968209 311.71936418 87.85968209 314 89 C314.37804791 92.26751715 314.29008676 93.61086933 312.29101562 96.29248047 C311.50404297 97.05963379 310.71707031 97.82678711 309.90625 98.6171875 C309.04 99.47183594 308.17375 100.32648438 307.28125 101.20703125 C306.3634375 102.08746094 305.445625 102.96789062 304.5 103.875 C303.613125 104.74769531 302.72625 105.62039062 301.8125 106.51953125 C297.94420782 110.30249346 294.04080247 114.01169809 289.9375 117.5390625 C285.21086369 121.61214217 280.87435326 126.0554324 276.5 130.5 C271.48072491 135.59984131 266.43954375 140.55183483 261.00976562 145.21289062 C257.1669081 148.63000884 253.60391313 152.33458665 250 156 C245.15359596 160.92910718 240.27002381 165.68972211 235.02734375 170.1953125 C231.18001943 173.62009831 227.60985315 177.32854526 224 181 C215.57808043 189.56563834 215.57808043 189.56563834 211.03125 193.46875 C206.26833486 197.56202757 201.90285874 202.02646937 197.5 206.5 C192.48072491 211.59984131 187.43954375 216.55183483 182.00976562 221.21289062 C178.1669081 224.63000884 174.60391313 228.33458665 171 232 C166.15359596 236.92910718 161.27002381 241.68972211 156.02734375 246.1953125 C152.18001943 249.62009831 148.60985315 253.32854526 145 257 C140.15359596 261.92910718 135.27002381 266.68972211 130.02734375 271.1953125 C126.18001943 274.62009831 122.60985315 278.32854526 119 282 C110.57679887 290.56694176 110.57679887 290.56694176 106.04296875 294.4453125 C100.25957993 299.41068918 95.06608576 304.99498501 89.80273438 310.5 C88.99771484 311.32242187 88.19269531 312.14484375 87.36328125 312.9921875 C86.64438721 313.73839355 85.92549316 314.48459961 85.18481445 315.25341797 C82.74708217 317.2021873 81.06853208 317.65624906 78 318 C75.67341666 315.18846336 74.49641184 312.94511772 73.67236328 309.39819336 C73.45379166 308.4800737 73.23522003 307.56195404 73.01002502 306.61601257 C72.78241989 305.61737686 72.55481476 304.61874115 72.3203125 303.58984375 C72.07123642 302.53509354 71.82216034 301.48034332 71.5655365 300.39363098 C71.02639518 298.10764892 70.49145834 295.82067208 69.9602356 293.53283691 C68.53698833 287.40635782 67.08227589 281.28735977 65.62890625 275.16796875 C65.33078537 273.90997467 65.03266449 272.65198059 64.72550964 271.35586548 C61.17134368 256.41639528 57.34240653 241.54839001 53.49072266 226.68334961 C50.87630602 216.56199096 48.37763982 206.42779283 46.05859375 196.234375 C42.95332684 182.59135415 39.49780637 169.04684768 36 155.5 C32.24613291 140.96144062 28.59534635 126.41796778 25.26708984 111.77563477 C22.41191114 99.29105965 19.20152811 86.89937523 16 74.5 C12.15098565 59.59293951 8.38738847 44.68163745 4.99133301 29.66381836 C3.35047492 22.41686523 1.54100535 15.2369802 -0.43359375 8.07421875 C-1.00474275 4.97425833 -0.86234411 3.0041138 0 0 Z " fill="#090909" transform="translate(33,28)"/>
<path d="M0 0 C0.87418076 0.24976593 0.87418076 0.24976593 1.76602173 0.50457764 C3.00840103 0.85954315 3.00840103 0.85954315 4.27587891 1.22167969 C5.21170807 1.48905945 6.14753723 1.75643921 7.11172485 2.03192139 C8.13962128 2.32560608 9.1675177 2.61929077 10.2265625 2.921875 C20.2890625 5.796875 20.2890625 5.796875 30.3515625 8.671875 C31.98747345 9.13914001 31.98747345 9.13914001 33.65643311 9.61584473 C35.81780355 10.23356426 37.97897917 10.85196588 40.13995361 11.47106934 C44.62389448 12.75499979 49.10812628 14.03558662 53.60449219 15.27539062 C54.85649414 15.62279297 56.10849609 15.97019531 57.3984375 16.328125 C58.43403809 16.61075195 59.46963867 16.89337891 60.53662109 17.18457031 C63 18 63 18 66 20 C62.7318517 23.29312827 59.46023304 26.58275765 56.18554688 29.86938477 C55.07524416 30.9846729 53.96584571 32.10086211 52.85742188 33.21801758 C47.33840511 38.77937337 41.83396577 44.26111402 35.86816406 49.34790039 C31.50730598 53.20439891 27.52576853 57.47981191 23.47265625 61.65429688 C22.79332031 62.34458984 22.11398438 63.03488281 21.4140625 63.74609375 C20.50068115 64.68473267 20.50068115 64.68473267 19.56884766 65.64233398 C18 67 18 67 16 67 C13.90970472 58.70828886 11.82320964 50.41563482 9.74157715 42.12174511 C8.77490273 38.27071202 7.80691604 34.42001869 6.8359375 30.57006836 C5.89917353 26.85557667 4.96584743 23.14023677 4.03491211 19.42428017 C3.67890059 18.00578282 3.32164539 16.58759702 2.96313477 15.16972923 C2.46172361 13.18581866 1.96472105 11.20085263 1.46875 9.21557617 C1.18451172 8.08528488 0.90027344 6.95499359 0.60742188 5.79045105 C0 3 0 3 0 0 Z " fill="#FCFCFC" transform="translate(98,268)"/>
<path d="M0 0 C1.7660224 2.6490336 2.42396491 4.06433965 3.17333984 7.03393555 C3.38050629 7.84295822 3.58767273 8.6519809 3.80111694 9.48551941 C4.01885773 10.36041519 4.23659851 11.23531097 4.4609375 12.13671875 C4.6927774 13.04895706 4.92461731 13.96119537 5.16348267 14.90107727 C5.90608932 17.82854071 6.64062761 20.75796134 7.375 23.6875 C7.86145394 25.61015901 8.34842777 27.53268655 8.8359375 29.45507812 C9.78622944 33.20620728 10.73090292 36.95868029 11.67089844 40.71240234 C12.5160996 44.08578489 13.37273222 47.45579627 14.24316406 50.82275391 C14.43165924 51.55798782 14.62015442 52.29322174 14.81436157 53.05073547 C15.31426684 54.99916759 15.81834276 56.94652834 16.32275391 58.89379883 C17 62 17 62 17 66 C7.93110317 63.88085284 -0.98146079 61.44904108 -9.875 58.6875 C-22.48941084 54.77238759 -35.22758184 51.35775321 -48 48 C-46.29358151 44.3574344 -44.25681802 42.02024681 -41.375 39.1875 C-40.14910156 37.97126953 -40.14910156 37.97126953 -38.8984375 36.73046875 C-36.72078759 34.67901688 -34.52490105 32.71687316 -32.2578125 30.76953125 C-27.43444747 26.57992206 -22.97937592 22.05127601 -18.5 17.5 C-12.84842698 11.75771152 -7.12280261 6.23795888 -1 1 C-0.67 0.67 -0.34 0.34 0 0 Z " fill="#FBFBFB" transform="translate(206,160)"/>
<path d="M0 0 C2.08890335 8.30933091 4.17528442 16.61928923 6.25842285 24.93006706 C7.22572258 28.78881616 8.19389906 32.6473409 9.1640625 36.50537109 C10.09979115 40.22660023 11.03323857 43.94839468 11.96508789 47.67059708 C12.3215162 49.09260683 12.6787746 50.51440877 13.03686523 51.93600082 C13.53717388 53.92277792 14.03456122 55.91026457 14.53125 57.89794922 C14.95760742 59.59671707 14.95760742 59.59671707 15.39257812 61.32980347 C16 64 16 64 16 66 C10.3666501 65.27251442 5.14581689 63.57700533 -0.25 61.875 C-10.14794156 58.80006734 -20.10355378 56.02260331 -30.12988281 53.39794922 C-36.17394543 51.8058593 -42.09370132 50.04685925 -48 48 C-48 44.40016856 -46.99291441 43.64352562 -44.54602051 41.18048096 C-44.04614624 40.69295349 -43.54627197 40.20542603 -43.03125 39.703125 C-42.51751831 39.19126648 -42.00378662 38.67940796 -41.4744873 38.15203857 C-40.38165805 37.06594091 -39.28523262 35.98345173 -38.18554688 34.90429688 C-36.52753987 33.27702928 -34.88004714 31.63973109 -33.234375 30 C-28.22919937 25.03246976 -23.1667642 20.18204126 -17.80566406 15.59619141 C-13.9177767 12.15933262 -10.36612602 8.36385365 -6.76171875 4.63476562 C-6.17261719 4.03470703 -5.58351562 3.43464844 -4.9765625 2.81640625 C-4.45143066 2.27443604 -3.92629883 1.73246582 -3.38525391 1.17407227 C-2 0 -2 0 0 0 Z " fill="#FBFBFB" transform="translate(131,138)"/>
<path d="M0 0 C7.15443707 1.29295887 14.04407717 3.08628644 21 5.1875 C31.13209072 8.20268841 41.30806682 11.0078034 51.53320312 13.69018555 C52.56767578 13.96386963 53.60214844 14.23755371 54.66796875 14.51953125 C55.57828857 14.75776611 56.4886084 14.99600098 57.42651367 15.24145508 C60.02996016 16.00883087 62.49777142 16.95202438 65 18 C61.12442694 22.76141834 56.95485835 27.15516592 52.625 31.5 C52.09624268 32.03326904 51.56748535 32.56653809 51.02270508 33.1159668 C48.17082 35.95746407 45.25577526 38.66850072 42.19921875 41.2890625 C36.34584695 46.35318408 31.02775293 51.96325328 25.62695312 57.5 C24.81548828 58.32242188 24.00402344 59.14484375 23.16796875 59.9921875 C22.43860107 60.73839355 21.7092334 61.48459961 20.95776367 62.25341797 C19 64 19 64 16 65 C12.48199411 52.53681471 9.13806449 40.03498 5.9230957 27.49023438 C5.17548047 24.57818249 4.42075775 21.66802432 3.66601562 18.7578125 C3.18706657 16.89334045 2.7085347 15.02876118 2.23046875 13.1640625 C1.8930793 11.86887192 1.8930793 11.86887192 1.5488739 10.54751587 C1.34478409 9.74502411 1.14069427 8.94253235 0.93041992 8.11572266 C0.75008713 7.41500641 0.56975433 6.71429016 0.38395691 5.99234009 C0 4 0 4 0 0 Z " fill="#FBFBFB" transform="translate(60,114)"/>
<path d="M0 0 C8.30564309 2.02504647 16.54417994 4.23207342 24.765625 6.57421875 C26.50474152 7.0672625 26.50474152 7.0672625 28.2789917 7.57026672 C31.93649114 8.60760376 35.59325523 9.64750615 39.25 10.6875 C41.74864949 11.39665503 44.24734697 12.10564097 46.74609375 12.81445312 C52.83128488 14.54101621 58.91587644 16.26967895 65 18 C63.53473563 21.07393844 62.13658381 23.05793838 59.61328125 25.36328125 C58.92935303 25.99564697 58.2454248 26.6280127 57.54077148 27.27954102 C56.80544189 27.95041748 56.0701123 28.62129395 55.3125 29.3125 C49.39881369 34.78286449 43.59873351 40.33110683 37.9375 46.0625 C33.12112564 50.92440011 28.24564172 55.59929386 23 60 C21.75906394 61.05961576 20.51946153 62.12079552 19.28125 63.18359375 C18.66314453 63.7139624 18.04503906 64.24433105 17.40820312 64.79077148 C16.71114258 65.3893396 16.71114258 65.3893396 16 66 C14.03530124 58.53125121 12.07904252 51.06032743 10.12841797 43.58789062 C9.46495927 41.05028219 8.79962609 38.51316302 8.13232422 35.9765625 C7.16912045 32.3137966 6.21284877 28.64927787 5.2578125 24.984375 C4.96190216 23.86512634 4.66599182 22.74587769 4.3611145 21.5927124 C2.50637956 14.44087794 1.0883823 7.3077832 0 0 Z " fill="#FCFCFC" transform="translate(214,158)"/>
<path d="M0 0 C6.44671815 0.72035464 12.56222629 2.35902513 18.8125 4.0625 C20.50294434 4.52015747 20.50294434 4.52015747 22.22753906 4.98706055 C36.59329727 8.92262585 50.8943856 13.20895511 65 18 C61.99267222 21.68397653 59.04943351 25.06095397 55.40625 28.12109375 C50.34537203 32.49232816 45.69055638 37.23837458 41 42 C35.18175288 47.90640238 29.32415571 53.63692611 23 59 C21.75346809 60.06719675 20.50740768 61.13494439 19.26171875 62.203125 C18.64643311 62.73067383 18.03114746 63.25822266 17.3972168 63.80175781 C16.93613525 64.19717773 16.47505371 64.59259766 16 65 C12.48199411 52.53681471 9.13806449 40.03498 5.9230957 27.49023438 C5.17548047 24.57818249 4.42075775 21.66802432 3.66601562 18.7578125 C3.18706657 16.89334045 2.7085347 15.02876118 2.23046875 13.1640625 C1.8930793 11.86887192 1.8930793 11.86887192 1.5488739 10.54751587 C1.34478409 9.74502411 1.14069427 8.94253235 0.93041992 8.11572266 C0.75008713 7.41500641 0.56975433 6.71429016 0.38395691 5.99234009 C0 4 0 4 0 0 Z " fill="#FCFCFC" transform="translate(41,37)"/>
<path d="M0 0 C6.53637659 1.38503609 12.92529841 3.05569765 19.3359375 4.93359375 C20.77593613 5.35149925 20.77593613 5.35149925 22.24502563 5.77784729 C25.28912729 6.66175187 28.33211204 7.54942716 31.375 8.4375 C34.41093798 9.32132861 37.44711208 10.20433508 40.48355103 11.08644104 C42.36391071 11.63292949 44.24395986 12.1804881 46.12362671 12.72935486 C52.39735735 14.55581104 58.69125925 16.29852879 65 18 C59.8419751 24.16446878 54.49334306 29.90933728 48.3671875 35.125 C43.51054084 39.35400815 39.01518738 43.91233771 34.5 48.5 C28.85154425 54.23912118 23.1515855 59.7987284 17 65 C15 64 15 64 14.19003296 61.67352295 C13.92800079 60.64269592 13.66596863 59.6118689 13.39599609 58.54980469 C13.09583588 57.38479431 12.79567566 56.21978394 12.48641968 55.01947021 C12.16863556 53.74976379 11.85085144 52.48005737 11.5234375 51.171875 C11.19053646 49.86234933 10.85708374 48.55296379 10.52310181 47.24371338 C9.82367273 44.49432839 9.12998213 41.74357746 8.44042969 38.99169922 C7.55786733 35.47088082 6.66284136 31.95338177 5.76364708 28.43677902 C5.07282672 25.73039315 4.38792393 23.02253724 3.70485306 20.3141861 C3.21804164 18.38749164 2.7268961 16.46189395 2.23568726 14.53631592 C1.94183136 13.3586969 1.64797546 12.18107788 1.34521484 10.96777344 C1.08477386 9.93376404 0.82433289 8.89975464 0.55599976 7.83441162 C0.02694655 5.13736987 -0.10826782 2.73903834 0 0 Z " fill="#FCFCFC" transform="translate(272,103)"/>
<path d="M0 0 C10.03177874 38.64936242 10.03177874 38.64936242 13.125 52.25 C13.32440186 53.12156738 13.52380371 53.99313477 13.72924805 54.89111328 C14.41819737 57.98613459 15 60.81896734 15 64 C9.34451893 63.3427606 4.08057414 62.01141941 -1.37890625 60.41796875 C-2.26803207 60.16251785 -3.1571579 59.90706696 -4.07322693 59.64387512 C-6.90426341 58.82944529 -9.73339718 58.00861865 -12.5625 57.1875 C-14.43542261 56.64735541 -16.30846851 56.10763809 -18.18164062 55.56835938 C-21.79508741 54.52747578 -25.40785591 53.48429238 -29.02001953 52.43896484 C-35.34222315 50.61032603 -41.67028916 48.80246498 -48 47 C-48 44 -48 44 -46.48046875 42.40625 C-45.72378906 41.7771875 -44.96710938 41.148125 -44.1875 40.5 C-37.7904295 34.95404188 -31.89180986 28.94677663 -25.95385742 22.91601562 C-21.69114716 18.60891586 -17.35772385 14.48745215 -12.75927734 10.54101562 C-9.61395774 7.78591469 -6.77333242 4.73906989 -3.8828125 1.72265625 C-2 0 -2 0 0 0 Z " fill="#FBFBFB" transform="translate(265,105)"/>
<path d="M0 0 C7.94593252 1.23412008 15.41746649 3.22204446 23.0625 5.6875 C36.27277318 9.85774524 49.59860927 13.49966149 63 17 C63 20 63 20 60.4375 22.890625 C59.29929404 24.01816861 58.15306753 25.13765892 57 26.25 C56.44699219 26.79785156 55.89398438 27.34570312 55.32421875 27.91015625 C52.36795519 30.81205175 49.34062373 33.58957143 46.1953125 36.28515625 C40.21090189 41.46924207 34.77263643 47.21882196 29.24609375 52.88085938 C25.06543559 57.1156052 21.15783687 60.99830805 16 64 C13.60750614 57.10741379 11.66217121 50.17432437 9.86328125 43.10546875 C9.57897751 41.99569168 9.29467377 40.88591461 9.00175476 39.74250793 C8.40598792 37.41250677 7.81192337 35.08206975 7.21948242 32.7512207 C6.310489 29.17959837 5.39283857 25.61027322 4.47460938 22.04101562 C3.89530884 19.77096712 3.3165149 17.50078925 2.73828125 15.23046875 C2.46333328 14.16378464 2.18838531 13.09710052 1.90510559 11.99809265 C1.65451889 11.00638565 1.40393219 10.01467865 1.14575195 8.99291992 C0.92385696 8.12293869 0.70196198 7.25295746 0.4733429 6.35661316 C0 4 0 4 0 0 Z " fill="#FBFBFB" transform="translate(195,81)"/>
<path d="M0 0 C1.94422311 2.91633467 2.50100898 4.54409402 3.2265625 7.890625 C3.45005371 8.89585205 3.67354492 9.9010791 3.90380859 10.93676758 C4.14180176 12.03013428 4.37979492 13.12350098 4.625 14.25 C6.35566953 22.01478985 8.15698986 29.74591666 10.171875 37.44140625 C10.35483124 38.14065216 10.53778748 38.83989807 10.72628784 39.56033325 C11.62777161 42.99433664 12.53932876 46.42544565 13.45947266 49.85449219 C13.95519775 51.73056152 13.95519775 51.73056152 14.4609375 53.64453125 C14.75790527 54.75159424 15.05487305 55.85865723 15.36083984 56.99926758 C15.95273484 59.77809926 16.12936532 62.17202149 16 65 C6.74456218 63.10191217 -2.26467114 60.52434841 -11.31689453 57.84082031 C-16.87773119 56.1947643 -22.44527817 54.58943481 -28.0390625 53.05859375 C-29.18213867 52.7450293 -30.32521484 52.43146484 -31.50292969 52.10839844 C-33.71826197 51.50340037 -35.93502865 50.90362578 -38.15332031 50.30957031 C-39.15202148 50.0359668 -40.15072266 49.76236328 -41.1796875 49.48046875 C-42.06382324 49.24223389 -42.94795898 49.00399902 -43.85888672 48.75854492 C-46 48 -46 48 -48 46 C-46.16994917 44.1424984 -44.33607989 42.28902768 -42.5 40.4375 C-41.9946875 39.92380859 -41.489375 39.41011719 -40.96875 38.88085938 C-38.13429712 36.02869116 -35.2390573 33.31083743 -32.1875 30.69140625 C-27.38139576 26.53435604 -22.95517429 22.02668591 -18.5 17.5 C-12.84842698 11.75771152 -7.12280261 6.23795888 -1 1 C-0.67 0.67 -0.34 0.34 0 0 Z " fill="#FBFBFB" transform="translate(149,215)"/>
<path d="M0 0 C0.66 0 1.32 0 2 0 C3.96131448 7.7525527 5.91753349 15.50636564 7.86727142 23.26183701 C8.77278444 26.86302008 9.68004222 30.46374466 10.59130859 34.06347656 C11.47076202 37.53781023 12.34560438 41.01327522 13.2172699 44.48957062 C13.55053451 45.81524177 13.88545488 47.14049781 14.22206116 48.4653244 C14.6934456 50.32180262 15.15838684 52.17991325 15.62304688 54.03808594 C15.88952026 55.09509705 16.15599365 56.15210815 16.43054199 57.2411499 C17 60 17 60 17 64 C7.54311147 62.27907574 -1.48823026 59.7030482 -10.65087891 56.84521484 C-22.34094627 53.22436377 -34.16591188 50.11107473 -46 47 C-46 44 -46 44 -44.3125 41.984375 C-43.549375 41.24703125 -42.78625 40.5096875 -42 39.75 C-41.2575 39.02296875 -40.515 38.2959375 -39.75 37.546875 C-37.63595577 35.58898177 -35.49774247 33.70338841 -33.3125 31.828125 C-28.29582272 27.46323928 -23.66434242 22.73501428 -19 18 C-13.18079713 12.09262739 -7.30711241 6.38492365 -1 1 C-0.67 0.67 -0.34 0.34 0 0 Z " fill="#FBFBFB" transform="translate(110,61)"/>
<path d="M0 0 C11.39264839 2.69737704 22.61007621 5.87404824 33.8359375 9.19140625 C37.91651941 10.39594649 42.00376598 11.57024114 46.1015625 12.71484375 C47.54462769 13.11920654 47.54462769 13.11920654 49.0168457 13.53173828 C50.83973194 14.04082833 52.66374465 14.54590704 54.48901367 15.04638672 C55.30345947 15.27471191 56.11790527 15.50303711 56.95703125 15.73828125 C57.66835205 15.93462158 58.37967285 16.13096191 59.11254883 16.33325195 C61 17 61 17 64 19 C63.04222656 19.88558594 62.08445313 20.77117187 61.09765625 21.68359375 C52.87205989 29.32462996 44.80595082 37.08957368 36.93774414 45.09936523 C33.01500003 49.07190373 28.98407193 52.82969704 24.75390625 56.47314453 C22.751284 58.21651864 20.85780702 60.04098867 19 61.9375 C18.13375 62.81728516 18.13375 62.81728516 17.25 63.71484375 C16.8375 64.13894531 16.425 64.56304687 16 65 C14.09201723 62.13802585 13.47643393 60.46767072 12.703125 57.1965332 C12.46948242 56.22154373 12.23583984 55.24655426 11.99511719 54.24201965 C11.74922852 53.18891098 11.50333984 52.13580231 11.25 51.05078125 C10.86183105 49.42090523 10.86183105 49.42090523 10.46582031 47.75810242 C9.63818789 44.27755678 8.81892716 40.79510307 8 37.3125 C7.4484817 34.98489209 6.89640486 32.65741644 6.34375 30.33007812 C5.56211084 27.03809199 4.78127504 23.74594076 4.00488281 20.45271301 C3.77124023 19.46196274 3.53759766 18.47121246 3.296875 17.45043945 C2.96719727 16.04926376 2.96719727 16.04926376 2.63085938 14.61978149 C2.05919176 12.24580671 1.44889503 9.88564856 0.828125 7.52416992 C0 4 0 4 0 0 Z " fill="#FCFCFC" transform="translate(138,136)"/>
<path d="M0 0 C7.87488966 1.91228787 15.66863029 4.00885275 23.4375 6.3125 C25.52850052 6.92757757 27.61964951 7.54215057 29.7109375 8.15625 C30.75475586 8.46304688 31.79857422 8.76984375 32.87402344 9.0859375 C37.76417821 10.51586092 42.66264639 11.91623218 47.5625 13.3125 C48.41191162 13.55460205 49.26132324 13.7967041 50.13647461 14.04614258 C51.70436303 14.49273794 53.27231114 14.93912385 54.84033203 15.38525391 C57.89421321 16.25453639 60.94713202 17.1271666 64 18 C62.56430733 21.38466406 60.86087865 23.20674714 58.0625 25.5625 C51.72594895 31.10351326 45.85745381 37.08847845 39.95336914 43.08422852 C35.68300081 47.39951564 31.34297325 51.53520965 26.73681641 55.49023438 C24.56120114 57.3814355 22.51980721 59.3816248 20.5 61.4375 C19.8296875 62.11683594 19.159375 62.79617187 18.46875 63.49609375 C17.74171875 64.24052734 17.74171875 64.24052734 17 65 C14.94125974 61.91188961 14.28475855 59.75559811 13.39599609 56.18334961 C13.09583588 54.98878647 12.79567566 53.79422333 12.48641968 52.5634613 C12.16523069 51.25980346 11.84424139 49.95609641 11.5234375 48.65234375 C11.19043841 47.31609663 10.8569868 45.9799622 10.52310181 44.64393616 C9.82526661 41.84643324 9.13133134 39.04800251 8.44042969 36.2487793 C7.55383434 32.65706468 6.66004033 29.06719237 5.76364708 25.47791195 C5.07537313 22.72039244 4.38965908 19.96224193 3.70485306 17.20385933 C3.37601561 15.87961917 3.04666868 14.55550543 2.71680832 13.2315197 C2.25719165 11.38403183 1.80111601 9.5356641 1.34521484 7.68725586 C1.08477386 6.63485214 0.82433289 5.58244843 0.55599976 4.49815369 C0 2 0 2 0 0 Z " fill="#FCFCFC" transform="translate(79,192)"/>
<path d="M0 0 C10.02913979 37.5413914 10.02913979 37.5413914 13.125 51.125 C13.32440186 51.99205566 13.52380371 52.85911133 13.72924805 53.75244141 C14.51169698 57.27617219 15 60.37276214 15 64 C9.36668593 63.27251904 4.14575339 61.57713041 -1.25 59.875 C-11.1747965 56.7894708 -21.15853703 54.01083513 -31.21777344 51.39794922 C-36.96327957 49.88923718 -42.48222658 48.2044534 -48 46 C-43.75170758 40.92819244 -39.31642618 36.16258545 -34.625 31.5 C-34.00367188 30.87480469 -33.38234375 30.24960938 -32.7421875 29.60546875 C-29.61183878 26.48158769 -26.43280284 23.47221281 -23.078125 20.58984375 C-17.68812447 15.93669078 -12.78961501 10.80188737 -7.828125 5.70117188 C-7.10367188 4.96576172 -6.37921875 4.23035156 -5.6328125 3.47265625 C-4.98199707 2.80500244 -4.33118164 2.13734863 -3.66064453 1.44946289 C-2 0 -2 0 0 0 Z " fill="#FBFBFB" transform="translate(188,83)"/>
<path d="M0 0 C2.37583481 0.58007395 4.75061162 1.16405517 7.125 1.75 C7.77082031 1.90726563 8.41664062 2.06453125 9.08203125 2.2265625 C14.81902791 3.64715215 20.49438327 5.2625806 26.17333984 6.8984375 C29.45707736 7.84371144 32.74336663 8.77884969 36.03140259 9.70898438 C38.75261936 10.48022639 41.47188814 11.25819688 44.19091797 12.03710938 C45.58445165 12.43497861 46.97868099 12.830418 48.37353516 13.22363281 C50.42270468 13.80180994 52.46933147 14.38829973 54.515625 14.9765625 C56.31435059 15.48823975 56.31435059 15.48823975 58.14941406 16.01025391 C61 17 61 17 63 19 C59.87427529 22.15072128 56.7450669 25.29793136 53.61279297 28.44213867 C52.55099139 29.50892297 51.49009442 30.57660853 50.43017578 31.64526367 C45.05305387 37.06554473 39.66546763 42.40059853 33.85449219 47.36157227 C29.72296297 51.01174244 25.95133468 55.05253784 22.1171875 59.00976562 C21.48296875 59.65494141 20.84875 60.30011719 20.1953125 60.96484375 C19.62828613 61.5487085 19.06125977 62.13257324 18.47705078 62.73413086 C17 64 17 64 15 64 C11.67309393 52.34180596 8.6097124 40.6475004 5.83251953 28.84619141 C5.24176537 26.34006666 4.64262912 23.83603816 4.04296875 21.33203125 C3.65835616 19.70845123 3.27422343 18.08475743 2.890625 16.4609375 C2.71460754 15.72749115 2.53859009 14.9940448 2.35723877 14.2383728 C1.25175465 9.50499696 0.53157768 4.83246257 0 0 Z " fill="#FCFCFC" transform="translate(119,59)"/>
<path d="M0 0 C7.5776033 1.42207608 14.99760965 3.23011024 22.4375 5.25 C23.5704248 5.55647461 24.70334961 5.86294922 25.87060547 6.17871094 C38.4240602 9.61059065 50.83997446 13.35459699 63 18 C61.8974474 21.30765781 61.14834829 21.94725879 58.53125 24.09375 C53.57645861 28.29781542 49.05548006 32.87139827 44.5 37.5 C39.4090291 42.67268793 34.29555218 47.70525064 28.78613281 52.43212891 C25.35738173 55.44189373 22.26425599 58.77350501 19.1015625 62.05859375 C17 64 17 64 15 64 C13.18246218 56.49334119 11.3680181 48.98593936 9.55566406 41.47802734 C8.9395048 38.92707626 8.32265261 36.37629243 7.70507812 33.82568359 C6.81455635 30.14725412 5.92657595 26.46821882 5.0390625 22.7890625 C4.62800766 21.09470566 4.62800766 21.09470566 4.20864868 19.36611938 C2.66033671 12.93543048 1.23636416 6.49812921 0 0 Z " fill="#FCFCFC" transform="translate(157,215)"/>
<path d="M0 0 C5.46710216 3.15236533 9.17665067 8.01982919 11.140625 14.01953125 C11.5654325 16.43446955 11.66920212 18.73558437 11.6875 21.1875 C11.70167969 22.05632812 11.71585938 22.92515625 11.73046875 23.8203125 C11.5 26.0625 11.5 26.0625 9.5 28.0625 C6.84708243 28.23760386 4.30013826 28.29405483 1.6484375 28.2578125 C0.87440582 28.2549826 0.10037415 28.25215271 -0.69711304 28.24923706 C-3.17323157 28.23802754 -5.6489905 28.21292203 -8.125 28.1875 C-9.80207812 28.17747118 -11.47916189 28.16834516 -13.15625 28.16015625 C-17.27097223 28.13808574 -21.38542511 28.10355102 -25.5 28.0625 C-23.80366551 34.38280206 -22.7211181 36.36420801 -17.5 40.0625 C-14.70940838 41.45779581 -12.36268312 41.23223354 -9.25 41.25 C-8.13109375 41.26417969 -7.0121875 41.27835937 -5.859375 41.29296875 C-2.41079154 41.05637988 0.26813266 40.24231521 3.5 39.0625 C6.25 38.8125 6.25 38.8125 8.5 39.0625 C10.5 41.0625 10.5 41.0625 10.6875 43.4375 C9.00328571 47.16050001 6.59091511 47.76353475 2.921875 49.265625 C-6.05002832 52.21767061 -15.9509778 52.32893074 -24.5 48.0625 C-29.40059027 45.03480858 -32.73025493 41.25764911 -34.84375 35.8828125 C-36.87352831 27.15959857 -36.90816161 16.0434055 -32.5 8.0625 C-30.3125 5.3125 -30.3125 5.3125 -27.5 3.0625 C-26.96890625 2.59714844 -26.4378125 2.13179687 -25.890625 1.65234375 C-18.46014295 -4.04753458 -8.34614483 -3.61834376 0 0 Z " fill="#070607" transform="translate(553.5,229.9375)"/>
<path d="M0 0 C5.46710216 3.15236533 9.17665067 8.01982919 11.140625 14.01953125 C11.5654325 16.43446955 11.66920212 18.73558437 11.6875 21.1875 C11.70167969 22.05632812 11.71585937 22.92515625 11.73046875 23.8203125 C11.5 26.0625 11.5 26.0625 9.5 28.0625 C6.84708243 28.23760386 4.30013826 28.29405483 1.6484375 28.2578125 C0.87440582 28.2549826 0.10037415 28.25215271 -0.69711304 28.24923706 C-3.17323157 28.23802754 -5.6489905 28.21292203 -8.125 28.1875 C-9.80207812 28.17747118 -11.47916189 28.16834516 -13.15625 28.16015625 C-17.27097223 28.13808574 -21.38542511 28.10355102 -25.5 28.0625 C-23.80366551 34.38280206 -22.7211181 36.36420801 -17.5 40.0625 C-14.70940838 41.45779581 -12.36268312 41.23223354 -9.25 41.25 C-8.13109375 41.26417969 -7.0121875 41.27835937 -5.859375 41.29296875 C-2.41079154 41.05637988 0.26813266 40.24231521 3.5 39.0625 C6.25 38.8125 6.25 38.8125 8.5 39.0625 C10.5 41.0625 10.5 41.0625 10.6875 43.4375 C9.00328571 47.16050001 6.59091511 47.76353475 2.921875 49.265625 C-6.05002832 52.21767061 -15.9509778 52.32893074 -24.5 48.0625 C-29.40059027 45.03480858 -32.73025493 41.25764911 -34.84375 35.8828125 C-36.87352831 27.15959857 -36.90816161 16.0434055 -32.5 8.0625 C-30.3125 5.3125 -30.3125 5.3125 -27.5 3.0625 C-26.96890625 2.59714844 -26.4378125 2.13179687 -25.890625 1.65234375 C-18.46014295 -4.04753458 -8.34614483 -3.61834376 0 0 Z " fill="#070607" transform="translate(496.5,229.9375)"/>
<path d="M0 0 C5.56818182 0.56818182 5.56818182 0.56818182 7 2 C7.15825258 3.99782126 7.25119171 6.00088834 7.31640625 8.00390625 C7.37924805 9.82631836 7.37924805 9.82631836 7.44335938 11.68554688 C7.48267578 12.96494141 7.52199219 14.24433594 7.5625 15.5625 C7.60568359 16.84576172 7.64886719 18.12902344 7.69335938 19.45117188 C7.799848 22.63399853 7.90185962 25.81690674 8 29 C8.54269531 28.57847656 9.08539063 28.15695313 9.64453125 27.72265625 C10.35996094 27.17480469 11.07539063 26.62695312 11.8125 26.0625 C12.52019531 25.51722656 13.22789062 24.97195312 13.95703125 24.41015625 C19.02211351 20.91399048 25.09981153 21.57744008 31 22 C36.29805465 23.7339088 38.80032773 26.61187803 42 31 C43.31141773 34.9342532 43.14275937 38.68862593 43.1328125 42.7890625 C43.13376923 43.64809174 43.13472595 44.50712097 43.13571167 45.3921814 C43.1363918 47.20611647 43.13454918 49.02005399 43.13037109 50.83398438 C43.12500741 53.62114879 43.13032844 56.40815301 43.13671875 59.1953125 C43.1360582 60.95572952 43.1347775 62.71614645 43.1328125 64.4765625 C43.13483673 65.31506744 43.13686096 66.15357239 43.13894653 67.01748657 C43.11495917 72.88504083 43.11495917 72.88504083 42 74 C39.0625 74.1875 39.0625 74.1875 36 74 C33.49631576 71.49631576 33.75827577 69.9816261 33.72354126 66.56535339 C33.72453827 65.82577896 33.72553528 65.08620453 33.7265625 64.32421875 C33.70626675 62.75845648 33.68541584 61.19270133 33.6640625 59.62695312 C33.64149238 57.15822356 33.6250054 54.68977514 33.61914062 52.22094727 C33.60959526 49.83818669 33.57578762 47.4566941 33.5390625 45.07421875 C33.54410797 44.34071701 33.54915344 43.60721527 33.55435181 42.85148621 C33.46094873 37.96491682 32.50584553 35.4149804 29 32 C24.81935385 30.41895564 20.97672662 30.65527296 16.8125 32.125 C10.25087128 36.05463407 10.25087128 36.05463407 7.25878906 42.56518555 C7.23157799 43.92209238 7.23539391 45.27987584 7.265625 46.63671875 C7.25218048 47.71769585 7.25218048 47.71769585 7.23846436 48.82051086 C7.21444421 51.11035403 7.23024955 53.39765228 7.25 55.6875 C7.24855852 57.98738824 7.23872618 60.28682311 7.21868896 62.58662415 C7.20847192 64.01447618 7.21023863 65.44247439 7.22515869 66.87028503 C7.2213232 71.7786768 7.2213232 71.7786768 5 74 C2.5 74.25 2.5 74.25 0 74 C-2.82665591 71.17334409 -2.25367965 69.33838076 -2.25878906 65.37890625 C-2.2622937 64.69907684 -2.26579834 64.01924744 -2.26940918 63.31881714 C-2.27822781 61.06660824 -2.27237705 58.81471222 -2.265625 56.5625 C-2.26697162 55.00073181 -2.26891212 53.43896402 -2.27142334 51.87719727 C-2.27437477 48.60201023 -2.27007639 45.32693219 -2.26074219 42.05175781 C-2.24934757 37.84816309 -2.25590695 33.64482375 -2.26788712 29.4412384 C-2.27510523 26.21567858 -2.27281803 22.99017955 -2.26763153 19.76461792 C-2.2662949 18.21442637 -2.26794324 16.66422935 -2.27259064 15.11404419 C-2.27765516 12.94957807 -2.2699471 10.78552873 -2.25878906 8.62109375 C-2.25719788 7.3880249 -2.25560669 6.15495605 -2.25396729 4.88452148 C-2 2 -2 2 0 0 Z " fill="#040102" transform="translate(369,206)"/>
<path d="M0 0 C1.125 2.5625 1.125 2.5625 1 5 C0.34 5.66 -0.32 6.32 -1 7 C-3.06640625 6.9765625 -3.06640625 6.9765625 -5.5625 6.625 C-16.18761843 5.27082757 -16.18761843 5.27082757 -26 9 C-26 10.98 -26 12.96 -26 15 C-24.41751931 15.58564246 -22.8339436 16.1683258 -21.25 16.75 C-20.25097656 17.11996094 -19.25195312 17.48992187 -18.22265625 17.87109375 C-16.10534888 18.61279294 -13.96603197 19.29487705 -11.80859375 19.91015625 C-5.96603914 21.59930533 -1.57720563 23.09285564 2.07421875 28.14453125 C4.29567495 32.59681689 3.27175375 36.1561331 1.8125 40.6875 C-0.74698136 45.36517284 -3.20587053 47.28234821 -8.125 49.25 C-16.73081007 50.91564066 -24.88867559 50.51346138 -33 47 C-34.36374174 46.04188401 -35.70692727 45.05154206 -37 44 C-36.125 39.125 -36.125 39.125 -35 38 C-31.50265772 38.38859359 -28.34211739 38.88596087 -25 40 C-22.85662235 40.12016328 -20.70920876 40.17531664 -18.5625 40.1875 C-16.86287109 40.20876953 -16.86287109 40.20876953 -15.12890625 40.23046875 C-12.12361515 40.00910524 -10.44586224 39.72202711 -8 38 C-7.18828772 35.44480079 -7.18828772 35.44480079 -7 33 C-12.21045557 30.18309746 -17.39492598 28.5872566 -23.078125 27.0703125 C-28.10576614 25.61191278 -31.25262607 23.69024932 -35 20 C-36.87664991 14.37005027 -36.93749151 8.90970492 -34.3125 3.5625 C-26.33841409 -5.27364925 -10.00067905 -5.80039385 0 0 Z " fill="#060506" transform="translate(662,231)"/>
<path d="M0 0 C0 3.3 0 6.6 0 10 C0.99902344 9.98839844 1.99804688 9.97679687 3.02734375 9.96484375 C4.31769531 9.95582031 5.60804688 9.94679687 6.9375 9.9375 C8.22527344 9.92589844 9.51304687 9.91429687 10.83984375 9.90234375 C14 10 14 10 15 11 C15.1875 13.4375 15.1875 13.4375 15 16 C13 18 13 18 9.9609375 18.1953125 C8.77757812 18.17210937 7.59421875 18.14890625 6.375 18.125 C5.18648438 18.10695312 3.99796875 18.08890625 2.7734375 18.0703125 C1.85820312 18.04710937 0.94296875 18.02390625 0 18 C0.06875021 22.66361951 0.15665125 27.3263314 0.26245117 31.98925781 C0.2957398 33.57606965 0.32375947 35.16300103 0.34643555 36.75 C0.37991078 39.02916484 0.4322186 41.30723041 0.48828125 43.5859375 C0.49467117 44.29744965 0.5010611 45.00896179 0.50764465 45.74203491 C0.54009648 47.9600456 0.54009648 47.9600456 1 51 C4.42732163 53.28488108 5.62036613 53.19457895 9.625 53.0625 C11.41597213 53.00844179 13.20832865 52.97957378 15 53 C16 54 16 54 16.0625 56.5625 C16.041875 57.366875 16.02125 58.17125 16 59 C10.61042001 61.75212595 6.06175525 62.9728743 0 62 C-3.27856434 60.78686898 -6.07735162 59.27069504 -8.17919922 56.37597656 C-9.39292753 52.8625905 -9.24472775 49.40518069 -9.1953125 45.734375 C-9.1924826 44.94097717 -9.18965271 44.14757935 -9.18673706 43.33013916 C-9.17556779 40.80327083 -9.15046944 38.27676068 -9.125 35.75 C-9.11496598 34.0338593 -9.10584087 32.31771302 -9.09765625 30.6015625 C-9.07563914 26.40090426 -9.04113187 22.2005128 -9 18 C-11.64 18 -14.28 18 -17 18 C-17.67651367 16.21582031 -17.67651367 16.21582031 -18 14 C-16.8918457 12.26074219 -16.8918457 12.26074219 -15.17578125 10.546875 C-14.55896484 9.928125 -13.94214844 9.309375 -13.30664062 8.671875 C-12.64857422 8.03765625 -11.99050781 7.4034375 -11.3125 6.75 C-10.67376953 6.1003125 -10.03503906 5.450625 -9.37695312 4.78125 C-4.5203683 0 -4.5203683 0 0 0 Z " fill="#040307" transform="translate(341,219)"/>
<path d="M0 0 C2.375 0.75 2.375 0.75 3.375 1.75 C3.48490901 3.77865944 3.52412451 5.81117434 3.53613281 7.84277344 C3.54574036 9.14792908 3.5553479 10.45308472 3.56524658 11.79779053 C3.57009516 13.23498358 3.57437384 14.67217866 3.578125 16.109375 C3.58387523 17.57570397 3.58963298 19.04203291 3.59539795 20.50836182 C3.60591973 23.58858593 3.61175407 26.66878387 3.61523438 29.74902344 C3.62070909 33.69122122 3.64470982 37.63307185 3.67320633 41.57516098 C3.69185912 44.60696409 3.69703979 47.63868422 3.69857025 50.67053986 C3.70159345 52.12337382 3.70961083 53.57620643 3.72275543 55.02898407 C3.73986243 57.06580241 3.73608415 59.10276354 3.73144531 61.13964844 C3.73509094 62.29801208 3.73873657 63.45637573 3.74249268 64.64984131 C3.22132503 69.04639811 1.60964118 71.6650123 -1.6875 74.5625 C-5.92936029 76.27729459 -10.10249084 76.34022577 -14.625 75.75 C-15.615 75.09 -16.605 74.43 -17.625 73.75 C-17.875 70.6875 -17.875 70.6875 -17.625 67.75 C-16.625 66.75 -16.625 66.75 -14.33984375 66.65234375 C-13.42332031 66.66394531 -12.50679687 66.67554688 -11.5625 66.6875 C-10.18384766 66.70103516 -10.18384766 66.70103516 -8.77734375 66.71484375 C-7.71193359 66.73224609 -7.71193359 66.73224609 -6.625 66.75 C-6.61913376 65.95486496 -6.61326752 65.15972992 -6.60722351 64.34049988 C-6.54934348 56.85070404 -6.47729442 49.36124267 -6.38928509 41.87174511 C-6.34453829 38.02120744 -6.30529202 34.17077662 -6.27856445 30.32006836 C-6.25257393 26.60458435 -6.21220265 22.8895106 -6.16181374 19.17428017 C-6.14511604 17.75614839 -6.13361983 16.33794561 -6.12738609 14.91972923 C-6.11777746 12.9348976 -6.08803716 10.95019418 -6.05737305 8.96557617 C-6.04626999 7.83528488 -6.03516693 6.70499359 -6.02372742 5.54045105 C-5.625 2.75 -5.625 2.75 -4.26203918 0.84590149 C-2.625 -0.25 -2.625 -0.25 0 0 Z " fill="#100903" transform="translate(608.625,228.25)"/>
<path d="M0 0 C3.125 0.375 3.125 0.375 6 1 C6.66 2.98 7.32 4.96 8 7 C8.48210937 6.57847656 8.96421875 6.15695313 9.4609375 5.72265625 C10.09257812 5.17480469 10.72421875 4.62695312 11.375 4.0625 C12.31472656 3.24458984 12.31472656 3.24458984 13.2734375 2.41015625 C16.09301198 0.10729112 17.92415452 -0.15847528 21.5 -0.1875 C22.2940625 -0.20167969 23.088125 -0.21585938 23.90625 -0.23046875 C26 0 26 0 28 2 C27.67028521 5.29714793 27.3773161 6.6226839 25 9 C22.6083223 9.47221424 20.22132594 9.7607764 17.80078125 10.046875 C13.43104387 11.53392649 10.46100132 12.9574986 8 17 C7.02763761 22.5846538 7.10677099 28.09657707 7.1875 33.75 C7.19350806 36.04315683 7.18975052 38.33584327 7.17634583 40.62896729 C7.17084975 42.05130021 7.17813932 43.47375205 7.19950867 44.89593506 C7.20674273 46.59857391 7.11166507 48.30101138 7 50 C5 52 5 52 2.5 52.25 C0 52 0 52 -2 50 C-2.25396729 47.95068359 -2.25396729 47.95068359 -2.25878906 45.3984375 C-2.26509338 44.44404785 -2.27139771 43.4896582 -2.27789307 42.50634766 C-2.2738446 41.47300293 -2.26979614 40.4396582 -2.265625 39.375 C-2.26753845 38.31716309 -2.2694519 37.25932617 -2.27142334 36.16943359 C-2.27278602 33.93001061 -2.26908382 31.69057974 -2.26074219 29.45117188 C-2.25004402 26.01414323 -2.26063488 22.5776373 -2.2734375 19.140625 C-2.27211592 16.96874884 -2.26955356 14.79687301 -2.265625 12.625 C-2.27169769 11.07498291 -2.27169769 11.07498291 -2.27789307 9.49365234 C-2.27158875 8.5392627 -2.26528442 7.58487305 -2.25878906 6.6015625 C-2.25719788 5.75932129 -2.25560669 4.91708008 -2.25396729 4.04931641 C-2 2 -2 2 0 0 Z " fill="#020205" transform="translate(430,228)"/>
<path d="M0 0 C0.721875 0.5775 1.44375 1.155 2.1875 1.75 C3.30125 2.61625 3.30125 2.61625 4.4375 3.5 C6.1875 5.75 6.1875 5.75 7.1875 12.75 C-2.3825 12.75 -11.9525 12.75 -21.8125 12.75 C-20.68096115 5.96076689 -20.68096115 5.96076689 -17.9375 2.9375 C-17.42445313 2.35355469 -16.91140625 1.76960937 -16.3828125 1.16796875 C-12.14611805 -2.6577031 -4.91633728 -2.18503879 0 0 Z " fill="#F7F8F8" transform="translate(548.8125,237.25)"/>
<path d="M0 0 C0.721875 0.5775 1.44375 1.155 2.1875 1.75 C3.30125 2.61625 3.30125 2.61625 4.4375 3.5 C6.1875 5.75 6.1875 5.75 7.1875 12.75 C-2.3825 12.75 -11.9525 12.75 -21.8125 12.75 C-20.68096115 5.96076689 -20.68096115 5.96076689 -17.9375 2.9375 C-17.42445313 2.35355469 -16.91140625 1.76960937 -16.3828125 1.16796875 C-12.14611805 -2.6577031 -4.91633728 -2.18503879 0 0 Z " fill="#F7F8F8" transform="translate(491.8125,237.25)"/>
<path d="M0 0 C1.875 1.125 1.875 1.125 3 3 C3.39365568 6.14924548 3.52854531 8.11909116 1.875 10.875 C-0.88090884 12.52854531 -2.85075452 12.39365568 -6 12 C-7.875 10.875 -7.875 10.875 -9 9 C-9.39365568 5.85075452 -9.52854531 3.88090884 -7.875 1.125 C-5.11909116 -0.52854531 -3.14924548 -0.39365568 0 0 Z " fill="#040205" transform="translate(585,268)"/>
<path d="M0 0 C3 0.25 3 0.25 5 2.25 C5.3125 5.75 5.3125 5.75 5 9.25 C2 11.25 2 11.25 -1.125 10.9375 C-4 10.25 -4 10.25 -5 9.25 C-5.1875 5.8125 -5.1875 5.8125 -5 2.25 C-3 0.25 -3 0.25 0 0 Z " fill="#090809" transform="translate(608,207.75)"/>
</svg>
